<svg width="286" height="83" viewBox="0 0 286 83" fill="none" xmlns="http://www.w3.org/2000/svg">
<path d="M15 66V71C15 76.5228 19.4772 81 25 81H274C279.523 81 284 76.5228 284 71V12C284 6.47715 279.523 2 274 2H25C19.4771 2 15 6.47715 15 12V42" stroke="#FDF8F0" stroke-width="4" stroke-linecap="round"/>
<path d="M4.92188 48.8359C4.84375 48.9609 4.79688 49.0859 4.78125 49.2109C4.78125 49.3203 4.75 49.4375 4.6875 49.5625C4.75 49.7969 4.75781 49.9219 4.71094 49.9375C4.72656 50.0781 4.71875 50.1953 4.6875 50.2891C4.65625 50.3828 4.66406 50.4922 4.71094 50.6172C4.63281 50.8047 4.57031 51.0234 4.52344 51.2734C4.42969 51.5859 4.35938 51.875 4.3125 52.1406C4.28125 52.4062 4.21094 52.6172 4.10156 52.7734C4.02344 53.2266 3.94531 53.5859 3.86719 53.8516C3.78906 54.1016 3.72656 54.3828 3.67969 54.6953C3.66406 54.8516 3.63281 55.0391 3.58594 55.2578C3.53906 55.4766 3.49219 55.6484 3.44531 55.7734C3.41406 56.0234 3.39844 56.2422 3.39844 56.4297C3.41406 56.6016 3.40625 56.75 3.375 56.875C3.32812 57.0156 3.28125 57.1641 3.23438 57.3203C3.1875 57.4609 3.17969 57.6016 3.21094 57.7422C3.17969 57.9922 3.14844 58.2656 3.11719 58.5625C3.10156 58.8438 3.10938 59.1172 3.14062 59.3828C3.10938 59.4141 3.07812 59.4531 3.04688 59.5C3.01562 59.5312 2.98438 59.5625 2.95312 59.5938C2.73438 58.5781 2.60938 57.6094 2.57812 56.6875C2.54688 55.75 2.5 54.8359 2.4375 53.9453C2.28125 53.7891 2.21094 53.6484 2.22656 53.5234C2.25781 53.3984 2.29688 53.2891 2.34375 53.1953C2.29688 53.0703 2.25 52.9531 2.20312 52.8438C2.17188 52.7344 2.16406 52.5938 2.17969 52.4219C2.10156 52.3906 2.04688 52.3438 2.01562 52.2812C2 52.2031 1.98438 52.125 1.96875 52.0469C1.96875 51.9531 1.96094 51.8672 1.94531 51.7891C1.92969 51.7109 1.89062 51.6562 1.82812 51.625C1.73438 51.5 1.67188 51.4531 1.64062 51.4844C1.625 51.5156 1.59375 51.5156 1.54688 51.4844C1.59375 51.4375 1.60938 51.3984 1.59375 51.3672C1.59375 51.3203 1.63281 51.2812 1.71094 51.25C1.67969 51.1719 1.66406 51.1094 1.66406 51.0625C1.67969 51.0156 1.67969 50.9453 1.66406 50.8516C1.46094 50.6641 1.375 50.5156 1.40625 50.4062C1.45312 50.2969 1.50781 50.1875 1.57031 50.0781C1.49219 49.9531 1.4375 49.8203 1.40625 49.6797C1.375 49.5234 1.28906 49.4297 1.14844 49.3984C1.16406 49.3047 1.1875 49.1953 1.21875 49.0703C1.26562 48.9297 1.24219 48.8047 1.14844 48.6953C1.07031 48.7109 1.01562 48.7344 0.984375 48.7656C0.953125 48.7969 0.898438 48.7969 0.820312 48.7656C0.804688 48.5625 0.828125 48.4453 0.890625 48.4141C0.953125 48.3828 0.992188 48.3281 1.00781 48.25C1.17969 48.125 1.26562 48.0234 1.26562 47.9453C1.28125 47.8516 1.32031 47.7656 1.38281 47.6875C1.50781 47.5625 1.57812 47.4531 1.59375 47.3594C1.60938 47.2656 1.63281 47.1797 1.66406 47.1016C1.69531 46.9922 1.75 46.8984 1.82812 46.8203C1.92188 46.7266 2.01562 46.6406 2.10938 46.5625C2.14062 46.5 2.17969 46.4453 2.22656 46.3984C2.28906 46.3516 2.35938 46.2969 2.4375 46.2344C2.51562 46.1719 2.57812 46.125 2.625 46.0938C2.6875 46.0469 2.78125 46.0078 2.90625 45.9766C2.98438 45.9609 3.0625 45.9688 3.14062 46C3.21875 46.0156 3.30469 46.0078 3.39844 45.9766C3.44531 46.0391 3.52344 46.0859 3.63281 46.1172C3.58594 46.1953 3.57031 46.2656 3.58594 46.3281C3.61719 46.375 3.65625 46.4219 3.70312 46.4688C3.75 46.5156 3.79688 46.5703 3.84375 46.6328C3.89062 46.6953 3.91406 46.7656 3.91406 46.8438C4.07031 47.125 4.21875 47.4062 4.35938 47.6875C4.5 47.9531 4.60156 48.25 4.66406 48.5781C4.71094 48.625 4.75781 48.6719 4.80469 48.7188C4.85156 48.75 4.89062 48.7891 4.92188 48.8359ZM4.38281 62.0312C4.49219 62.125 4.55469 62.2578 4.57031 62.4297C4.60156 62.5859 4.60156 62.75 4.57031 62.9219C4.55469 63.0781 4.50781 63.2344 4.42969 63.3906C4.35156 63.5312 4.26562 63.6406 4.17188 63.7188C4.21875 63.8594 4.17188 63.9453 4.03125 63.9766C3.90625 64.0078 3.78125 64.0391 3.65625 64.0703C3.45312 64.1797 3.28125 64.2188 3.14062 64.1875C3 64.1719 2.86719 64.1328 2.74219 64.0703C2.61719 64.0234 2.5 63.9688 2.39062 63.9062C2.29688 63.8281 2.21094 63.7656 2.13281 63.7188C2.05469 63.7188 2 63.7344 1.96875 63.7656C1.9375 63.7969 1.88281 63.8125 1.80469 63.8125C1.74219 63.5625 1.66406 63.3125 1.57031 63.0625C1.49219 62.8125 1.45312 62.5469 1.45312 62.2656C1.5 62.0312 1.54688 61.8906 1.59375 61.8438C1.65625 61.7969 1.67188 61.7344 1.64062 61.6562C1.73438 61.5156 1.85156 61.3984 1.99219 61.3047C2.14844 61.2109 2.32031 61.1406 2.50781 61.0938C2.69531 61.0469 2.89062 61.0156 3.09375 61C3.29688 60.9844 3.48438 60.9922 3.65625 61.0234C3.84375 61.1484 4 61.2891 4.125 61.4453C4.26562 61.5859 4.35156 61.7812 4.38281 62.0312ZM2.95312 46.8672C2.90625 46.8516 2.83594 46.8516 2.74219 46.8672C2.64844 46.8672 2.61719 46.9219 2.64844 47.0312C2.72656 47.0312 2.78125 47.0156 2.8125 46.9844C2.84375 46.9375 2.89062 46.8984 2.95312 46.8672ZM4.21875 48.3203C4.1875 48.2422 4.15625 48.1719 4.125 48.1094C4.09375 48.0312 4.0625 47.9609 4.03125 47.8984C3.95312 48.0547 3.875 48.2031 3.79688 48.3438C3.73438 48.4688 3.66406 48.6172 3.58594 48.7891C3.66406 48.8203 3.69531 48.7969 3.67969 48.7188C3.67969 48.6406 3.71875 48.6094 3.79688 48.625C3.90625 48.6562 3.96875 48.6328 3.98438 48.5547C4 48.4766 4.02344 48.4141 4.05469 48.3672L4.21875 48.3203ZM3.63281 47.1016C3.47656 46.9766 3.375 46.9297 3.32812 46.9609C3.28125 46.9766 3.21875 46.9609 3.14062 46.9141C3.03125 47.0234 2.92969 47.1406 2.83594 47.2656C2.74219 47.375 2.60938 47.4453 2.4375 47.4766C2.4375 47.5547 2.4375 47.6172 2.4375 47.6641C2.45312 47.6953 2.44531 47.7344 2.41406 47.7812C2.33594 47.7812 2.28125 47.8203 2.25 47.8984C2.23438 47.9609 2.25 48 2.29688 48.0156C2.39062 47.875 2.45312 47.8047 2.48438 47.8047C2.57812 47.7578 2.64062 47.7266 2.67188 47.7109C2.70312 47.6797 2.73438 47.6484 2.76562 47.6172C2.8125 47.4766 2.89844 47.3828 3.02344 47.3359C3.14844 47.2891 3.21875 47.2109 3.23438 47.1016C3.4375 47.1016 3.57031 47.1016 3.63281 47.1016ZM4.3125 48.7891C4.17188 48.8047 4.0625 48.8281 3.98438 48.8594C3.92188 48.8906 3.84375 48.9375 3.75 49C3.64062 48.9844 3.55469 48.9766 3.49219 48.9766C3.42969 48.9766 3.39844 49 3.39844 49.0469C3.39844 49.0781 3.39062 49.125 3.375 49.1875C3.375 49.2344 3.35938 49.2734 3.32812 49.3047C3.39062 49.3359 3.44531 49.3516 3.49219 49.3516C3.53906 49.3359 3.58594 49.3438 3.63281 49.375C3.58594 49.1875 3.54688 49.1016 3.51562 49.1172C3.5 49.1328 3.47656 49.125 3.44531 49.0938C3.55469 49.0625 3.63281 49.0859 3.67969 49.1641C3.72656 49.2422 3.76562 49.3125 3.79688 49.375C3.84375 49.2656 3.82031 49.1562 3.72656 49.0469C3.78906 49.0625 3.83594 49.0625 3.86719 49.0469C3.91406 49.0312 3.95312 49.0391 3.98438 49.0703C3.98438 49.1641 4.01562 49.1875 4.07812 49.1406C4.14062 49.0938 4.21094 49.0547 4.28906 49.0234L4.3125 48.7891ZM3.9375 47.5469C3.85938 47.5 3.8125 47.4297 3.79688 47.3359C3.79688 47.2266 3.75 47.1562 3.65625 47.125C3.625 47.1719 3.58594 47.2188 3.53906 47.2656C3.50781 47.2969 3.45312 47.3281 3.375 47.3594C3.23438 47.4688 3.13281 47.5391 3.07031 47.5703C3.00781 47.6016 2.95312 47.6406 2.90625 47.6875C2.96875 47.7344 3.03125 47.7578 3.09375 47.7578C3.15625 47.7422 3.21094 47.7188 3.25781 47.6875C3.32031 47.6562 3.375 47.625 3.42188 47.5938C3.48438 47.5625 3.55469 47.5469 3.63281 47.5469C3.60156 47.6094 3.57031 47.6797 3.53906 47.7578C3.50781 47.8359 3.45312 47.8906 3.375 47.9219C3.1875 47.9219 3.10156 47.8984 3.11719 47.8516C2.96094 47.7578 2.82031 47.7734 2.69531 47.8984C2.57031 48.0391 2.46094 48.1406 2.36719 48.2031C2.28906 48.25 2.1875 48.2891 2.0625 48.3203C2.04688 48.4141 2.03906 48.5 2.03906 48.5781C2.03906 48.6406 2 48.6953 1.92188 48.7422C1.95312 48.7734 2.00781 48.8047 2.08594 48.8359C2.17969 48.8672 2.24219 48.8594 2.27344 48.8125C2.32031 48.7031 2.35156 48.6406 2.36719 48.625C2.38281 48.6094 2.38281 48.5859 2.36719 48.5547C2.42969 48.3828 2.47656 48.3203 2.50781 48.3672C2.53906 48.3984 2.57031 48.3828 2.60156 48.3203C2.57031 48.2891 2.58594 48.2422 2.64844 48.1797C2.71094 48.1016 2.77344 48.0547 2.83594 48.0391C2.92969 48.0703 3.08594 48.0469 3.30469 47.9688C3.19531 48.1094 3.08594 48.1953 2.97656 48.2266C2.86719 48.2422 2.77344 48.2891 2.69531 48.3672C2.61719 48.5547 2.55469 48.6562 2.50781 48.6719C2.46094 48.6875 2.44531 48.7344 2.46094 48.8125C2.32031 48.8594 2.23438 48.9062 2.20312 48.9531C2.17188 49 2.10938 49.0078 2.01562 48.9766C1.90625 48.8984 1.83594 48.8359 1.80469 48.7891C1.78906 48.7422 1.74219 48.7266 1.66406 48.7422C1.67969 48.8203 1.72656 48.8672 1.80469 48.8828C1.88281 48.8984 1.92969 48.9453 1.94531 49.0234C1.94531 49.1016 1.97656 49.1562 2.03906 49.1875C2.11719 49.2031 2.17969 49.1797 2.22656 49.1172C2.25781 49.2891 2.27344 49.3594 2.27344 49.3281C2.27344 49.2969 2.32812 49.2969 2.4375 49.3281C2.39062 49.25 2.39844 49.1797 2.46094 49.1172C2.53906 49.0547 2.61719 49.0469 2.69531 49.0938C2.78906 49.0156 2.82812 48.9609 2.8125 48.9297C2.8125 48.8984 2.84375 48.8828 2.90625 48.8828C2.95312 49.0391 2.92969 49.125 2.83594 49.1406C2.74219 49.1562 2.64844 49.1875 2.55469 49.2344C2.46094 49.3438 2.34375 49.3984 2.20312 49.3984C2.0625 49.3828 1.96875 49.3594 1.92188 49.3281C1.98438 49.4531 2.03125 49.5469 2.0625 49.6094C2.14062 49.6406 2.21094 49.625 2.27344 49.5625C2.35156 49.5 2.39844 49.5234 2.41406 49.6328C2.36719 49.6172 2.33594 49.625 2.32031 49.6562C2.30469 49.6875 2.28906 49.7188 2.27344 49.75C2.25781 49.7812 2.24219 49.8203 2.22656 49.8672C2.21094 49.8984 2.17969 49.9219 2.13281 49.9375C2.17969 49.9531 2.24219 49.9453 2.32031 49.9141C2.39844 49.8828 2.49219 49.875 2.60156 49.8906C2.72656 49.625 2.83594 49.4297 2.92969 49.3047C3.02344 49.1797 3.08594 49.0312 3.11719 48.8594C3.08594 48.8281 3.03906 48.8125 2.97656 48.8125C2.92969 48.8125 2.89062 48.7969 2.85938 48.7656C2.92188 48.6875 3.00781 48.6406 3.11719 48.625C3.22656 48.6094 3.3125 48.5625 3.375 48.4844C3.25 48.4062 3.21875 48.3594 3.28125 48.3438C3.34375 48.3125 3.35156 48.2578 3.30469 48.1797C3.57031 48.0547 3.78125 47.8438 3.9375 47.5469ZM4.33594 49.5859C4.25781 49.6797 4.17188 49.7734 4.07812 49.8672C4 49.9609 3.91406 50.0234 3.82031 50.0547C3.78906 50.1016 3.76562 50.1641 3.75 50.2422C3.73438 50.3203 3.69531 50.3828 3.63281 50.4297C3.69531 50.5234 3.75781 50.5234 3.82031 50.4297C3.88281 50.3359 3.9375 50.25 3.98438 50.1719C4.07812 50.1094 4.1875 50.0312 4.3125 49.9375C4.4375 49.8281 4.44531 49.7109 4.33594 49.5859ZM3.30469 49.3281C3.28906 49.3906 3.25 49.4297 3.1875 49.4453C3.14062 49.4609 3.125 49.5078 3.14062 49.5859C3.21875 49.5234 3.27344 49.4766 3.30469 49.4453C3.35156 49.3984 3.35156 49.3594 3.30469 49.3281ZM4.26562 50.5234C4.23438 50.6016 4.1875 50.6328 4.125 50.6172C4.0625 50.6016 4.04688 50.6328 4.07812 50.7109C4.15625 50.6953 4.21875 50.6328 4.26562 50.5234ZM2.29688 50.2656C2.20312 50.4062 2.13281 50.5 2.08594 50.5469C2.05469 50.5938 2.07031 50.6328 2.13281 50.6641C2.16406 50.5859 2.20312 50.5234 2.25 50.4766C2.29688 50.4297 2.3125 50.3594 2.29688 50.2656ZM2.74219 51.0156C2.60156 51.0156 2.49219 51.0625 2.41406 51.1562C2.35156 51.2344 2.28906 51.3203 2.22656 51.4141C2.35156 51.4141 2.44531 51.3672 2.50781 51.2734C2.58594 51.1797 2.66406 51.0938 2.74219 51.0156ZM3.46875 51.7188C3.3125 51.7969 3.1875 51.9062 3.09375 52.0469C3.01562 52.1719 2.89844 52.2734 2.74219 52.3516C2.66406 52.2891 2.64844 52.2109 2.69531 52.1172C2.74219 52.0234 2.75 51.9531 2.71875 51.9062C2.6875 51.9375 2.65625 51.9688 2.625 52C2.59375 52.0312 2.53906 52.0469 2.46094 52.0469C2.49219 52.1094 2.5 52.1641 2.48438 52.2109C2.48438 52.2578 2.46875 52.3047 2.4375 52.3516C2.51562 52.4297 2.55469 52.5312 2.55469 52.6562C2.55469 52.7812 2.59375 52.8594 2.67188 52.8906C2.78125 52.7656 2.86719 52.6328 2.92969 52.4922C3.00781 52.3359 3.10156 52.1875 3.21094 52.0469C3.25781 52 3.32031 51.9609 3.39844 51.9297C3.47656 51.8828 3.5 51.8125 3.46875 51.7188ZM4.05469 51.5781C3.92969 51.6094 3.83594 51.6953 3.77344 51.8359C3.72656 51.9766 3.61719 52.0625 3.44531 52.0938C3.42969 52.2188 3.36719 52.3125 3.25781 52.375C3.16406 52.4219 3.125 52.5312 3.14062 52.7031C3.04688 52.8594 3.00781 52.9375 3.02344 52.9375C3.05469 52.9375 3.08594 52.9766 3.11719 53.0547C2.85156 53.3203 2.72656 53.5625 2.74219 53.7812C2.77344 53.9844 2.8125 54.1797 2.85938 54.3672C2.76562 54.4453 2.73438 54.5312 2.76562 54.625C2.8125 54.7188 2.85156 54.8047 2.88281 54.8828C2.91406 55.0547 2.91406 55.2578 2.88281 55.4922C2.86719 55.7109 2.86719 55.9141 2.88281 56.1016C2.88281 56.1953 2.89062 56.2812 2.90625 56.3594C2.9375 56.4375 2.9375 56.5156 2.90625 56.5938C3.03125 56.3906 3.10156 56.1641 3.11719 55.9141C3.13281 55.6484 3.14844 55.3906 3.16406 55.1406C3.10156 54.7344 3.17188 54.4141 3.375 54.1797C3.34375 54.0234 3.38281 53.875 3.49219 53.7344C3.60156 53.5938 3.63281 53.4531 3.58594 53.3125C3.50781 53.2969 3.47656 53.3203 3.49219 53.3828C3.50781 53.4297 3.5 53.4844 3.46875 53.5469C3.39062 53.6094 3.3125 53.6719 3.23438 53.7344C3.17188 53.7969 3.125 53.8594 3.09375 53.9219C3.09375 53.8594 3.07812 53.8125 3.04688 53.7812C3.01562 53.75 3 53.6953 3 53.6172C3.04688 53.5703 3.07812 53.5156 3.09375 53.4531C3.125 53.375 3.17188 53.3203 3.23438 53.2891C3.20312 53.1953 3.21094 53.1172 3.25781 53.0547C3.32031 52.9766 3.38281 52.9453 3.44531 52.9609C3.42969 52.8828 3.4375 52.8281 3.46875 52.7969C3.51562 52.75 3.55469 52.7031 3.58594 52.6562C3.61719 52.5781 3.64062 52.5234 3.65625 52.4922C3.67188 52.4453 3.70312 52.4219 3.75 52.4219C3.82812 52.2812 3.88281 52.1406 3.91406 52C3.96094 51.8438 4.00781 51.7031 4.05469 51.5781ZM3.25781 61.6562C3.22656 61.5625 3.20312 61.4766 3.1875 61.3984C3.01562 61.5703 2.85938 61.7422 2.71875 61.9141C2.59375 62.0703 2.49219 62.2266 2.41406 62.3828C2.52344 62.3516 2.60156 62.3047 2.64844 62.2422C2.69531 62.1641 2.75781 62.1094 2.83594 62.0781C2.91406 61.9844 2.98438 61.9141 3.04688 61.8672C3.10938 61.8047 3.17969 61.7344 3.25781 61.6562ZM3.46875 62.3359C3.29688 62.2266 3.1875 62.1797 3.14062 62.1953C3.09375 62.2109 3.03125 62.2031 2.95312 62.1719C3.01562 62.3125 3.0625 62.3672 3.09375 62.3359C3.14062 62.3047 3.17969 62.3047 3.21094 62.3359C3.14844 62.4766 3.13281 62.5469 3.16406 62.5469C3.19531 62.5469 3.22656 62.5625 3.25781 62.5938C3.28906 62.5312 3.3125 62.4688 3.32812 62.4062C3.35938 62.3281 3.40625 62.3047 3.46875 62.3359ZM4.14844 62.5703C4.22656 62.4609 4.22656 62.3516 4.14844 62.2422C4.07031 62.1172 4.01562 61.9922 3.98438 61.8672C3.82812 61.8672 3.71094 61.8516 3.63281 61.8203C3.66406 62.0078 3.64062 62.1953 3.5625 62.3828C3.67188 62.4922 3.73438 62.5625 3.75 62.5938C3.84375 62.6562 3.86719 62.7266 3.82031 62.8047C3.77344 62.8672 3.67188 62.8672 3.51562 62.8047C3.54688 62.8828 3.51562 62.9297 3.42188 62.9453C3.32812 62.9609 3.25781 62.9766 3.21094 62.9922C3.21094 63.0547 3.1875 63.125 3.14062 63.2031C3.09375 63.2656 3.03125 63.3203 2.95312 63.3672C2.89062 63.4141 2.82812 63.4297 2.76562 63.4141C2.71875 63.3984 2.6875 63.3438 2.67188 63.25C2.65625 63.1562 2.67188 63.0938 2.71875 63.0625C2.76562 63.0156 2.8125 62.9609 2.85938 62.8984C2.70312 62.9453 2.625 62.9844 2.625 63.0156C2.64062 63.0469 2.60938 63.0469 2.53125 63.0156C2.59375 63.0938 2.58594 63.1484 2.50781 63.1797C2.42969 63.2109 2.38281 63.2578 2.36719 63.3203C2.47656 63.4453 2.59375 63.5625 2.71875 63.6719C2.85938 63.7812 3.01562 63.8359 3.1875 63.8359C3.59375 63.7734 3.85156 63.6172 3.96094 63.3672C4.08594 63.1172 4.14844 62.8516 4.14844 62.5703ZM2.625 61.7031C2.57812 61.6406 2.57812 61.5781 2.625 61.5156C2.67188 61.4531 2.67188 61.4062 2.625 61.375C2.48438 61.4062 2.35938 61.4609 2.25 61.5391C2.15625 61.6016 2.07031 61.6719 1.99219 61.75C1.99219 61.8906 1.96094 62.0469 1.89844 62.2188C1.85156 62.375 1.88281 62.5 1.99219 62.5938C2.00781 62.4688 2.04688 62.3828 2.10938 62.3359C2.17188 62.2734 2.23438 62.2109 2.29688 62.1484C2.375 62.0391 2.41406 61.9375 2.41406 61.8438C2.42969 61.7344 2.5 61.6875 2.625 61.7031ZM2.74219 62.3828C2.69531 62.5234 2.625 62.6562 2.53125 62.7812C2.65625 62.7812 2.73438 62.7578 2.76562 62.7109C2.79688 62.6641 2.82031 62.625 2.83594 62.5938C2.86719 62.5469 2.875 62.5078 2.85938 62.4766C2.85938 62.4453 2.82031 62.4141 2.74219 62.3828ZM3.42188 63.6016C3.29688 63.5078 3.21875 63.4453 3.1875 63.4141C3.15625 63.3828 3.15625 63.3516 3.1875 63.3203L3.42188 63.6016ZM9.05363 64V46.864H21.9176V64H19.7816V48.76H11.2136V64H9.05363ZM32.1043 46.864C34.3443 46.864 35.9763 47.304 37.0003 48.184C38.0243 49.064 38.5363 50.304 38.5363 51.904C38.5363 52.608 38.4163 53.288 38.1763 53.944C37.9523 54.584 37.5763 55.16 37.0483 55.672C36.5203 56.184 35.8163 56.592 34.9363 56.896C34.0563 57.184 32.9763 57.328 31.6963 57.328H29.7283V64H27.5683V46.864H32.1043ZM31.9123 48.712H29.7283V55.48H31.4563C32.5443 55.48 33.4483 55.368 34.1683 55.144C34.8883 54.904 35.4243 54.528 35.7763 54.016C36.1283 53.504 36.3043 52.832 36.3043 52C36.3043 50.896 35.9523 50.072 35.2483 49.528C34.5443 48.984 33.4323 48.712 31.9123 48.712ZM58.0116 55.408C58.0116 56.736 57.8436 57.944 57.5076 59.032C57.1716 60.104 56.6676 61.032 55.9956 61.816C55.3396 62.6 54.5156 63.2 53.5236 63.616C52.5476 64.032 51.4116 64.24 50.1156 64.24C48.7716 64.24 47.6036 64.032 46.6116 63.616C45.6196 63.184 44.7956 62.584 44.1396 61.816C43.4836 61.032 42.9956 60.096 42.6756 59.008C42.3556 57.92 42.1956 56.712 42.1956 55.384C42.1956 53.624 42.4836 52.088 43.0596 50.776C43.6356 49.464 44.5076 48.44 45.6756 47.704C46.8596 46.968 48.3476 46.6 50.1396 46.6C51.8516 46.6 53.2916 46.968 54.4596 47.704C55.6276 48.424 56.5076 49.448 57.0996 50.776C57.7076 52.088 58.0116 53.632 58.0116 55.408ZM44.4756 55.408C44.4756 56.848 44.6756 58.088 45.0756 59.128C45.4756 60.168 46.0916 60.968 46.9236 61.528C47.7716 62.088 48.8356 62.368 50.1156 62.368C51.4116 62.368 52.4676 62.088 53.2836 61.528C54.1156 60.968 54.7316 60.168 55.1316 59.128C55.5316 58.088 55.7316 56.848 55.7316 55.408C55.7316 53.248 55.2836 51.56 54.3876 50.344C53.4916 49.112 52.0756 48.496 50.1396 48.496C48.8436 48.496 47.7716 48.776 46.9236 49.336C46.0916 49.88 45.4756 50.672 45.0756 51.712C44.6756 52.736 44.4756 53.968 44.4756 55.408ZM70.1136 48.52C69.2016 48.52 68.3776 48.68 67.6416 49C66.9056 49.304 66.2816 49.76 65.7696 50.368C65.2576 50.96 64.8656 51.688 64.5936 52.552C64.3216 53.4 64.1856 54.36 64.1856 55.432C64.1856 56.84 64.4016 58.064 64.8336 59.104C65.2816 60.144 65.9376 60.944 66.8016 61.504C67.6816 62.064 68.7776 62.344 70.0896 62.344C70.8416 62.344 71.5536 62.28 72.2256 62.152C72.8976 62.024 73.5536 61.864 74.1936 61.672V63.544C73.5536 63.784 72.8896 63.96 72.2016 64.072C71.5296 64.184 70.7216 64.24 69.7776 64.24C68.0336 64.24 66.5776 63.88 65.4096 63.16C64.2416 62.44 63.3616 61.416 62.7696 60.088C62.1936 58.76 61.9056 57.2 61.9056 55.408C61.9056 54.112 62.0816 52.928 62.4336 51.856C62.8016 50.784 63.3296 49.856 64.0176 49.072C64.7216 48.288 65.5856 47.688 66.6096 47.272C67.6336 46.84 68.8096 46.624 70.1376 46.624C71.0176 46.624 71.8656 46.712 72.6816 46.888C73.4976 47.064 74.2256 47.312 74.8656 47.632L74.0016 49.456C73.4736 49.216 72.8816 49 72.2256 48.808C71.5856 48.616 70.8816 48.52 70.1136 48.52ZM84.3176 64H82.1576V48.76H76.8056V46.864H89.6456V48.76H84.3176V64ZM107.673 55.408C107.673 56.736 107.505 57.944 107.169 59.032C106.833 60.104 106.329 61.032 105.657 61.816C105.001 62.6 104.177 63.2 103.185 63.616C102.209 64.032 101.073 64.24 99.7768 64.24C98.4328 64.24 97.2648 64.032 96.2728 63.616C95.2808 63.184 94.4568 62.584 93.8008 61.816C93.1448 61.032 92.6568 60.096 92.3368 59.008C92.0168 57.92 91.8568 56.712 91.8568 55.384C91.8568 53.624 92.1448 52.088 92.7208 50.776C93.2968 49.464 94.1688 48.44 95.3368 47.704C96.5208 46.968 98.0088 46.6 99.8008 46.6C101.513 46.6 102.953 46.968 104.121 47.704C105.289 48.424 106.169 49.448 106.761 50.776C107.369 52.088 107.673 53.632 107.673 55.408ZM94.1368 55.408C94.1368 56.848 94.3368 58.088 94.7368 59.128C95.1368 60.168 95.7528 60.968 96.5848 61.528C97.4328 62.088 98.4968 62.368 99.7768 62.368C101.073 62.368 102.129 62.088 102.945 61.528C103.777 60.968 104.393 60.168 104.793 59.128C105.193 58.088 105.393 56.848 105.393 55.408C105.393 53.248 104.945 51.56 104.049 50.344C103.153 49.112 101.737 48.496 99.8008 48.496C98.5048 48.496 97.4328 48.776 96.5848 49.336C95.7528 49.88 95.1368 50.672 94.7368 51.712C94.3368 52.736 94.1368 53.968 94.1368 55.408ZM124.376 58.6328C124.329 58.7109 124.306 58.8125 124.306 58.9375C124.306 59.0625 124.314 59.1953 124.329 59.3359C124.345 59.4766 124.353 59.6172 124.353 59.7578C124.353 59.8828 124.322 60 124.259 60.1094C124.243 60.25 124.22 60.3906 124.189 60.5312C124.158 60.6719 124.103 60.8047 124.025 60.9297C124.087 61.0078 124.095 61.1016 124.048 61.2109C124.001 61.3047 124.001 61.4141 124.048 61.5391C123.97 61.5703 123.915 61.6094 123.884 61.6562C123.853 61.7031 123.814 61.7734 123.767 61.8672C123.704 61.8359 123.65 61.8359 123.603 61.8672C123.556 61.8828 123.509 61.8984 123.462 61.9141C123.509 62.0391 123.501 62.1328 123.439 62.1953C123.376 62.2422 123.306 62.2891 123.228 62.3359C123.15 62.3828 123.072 62.4297 122.993 62.4766C122.915 62.5234 122.861 62.5938 122.829 62.6875C122.751 62.7188 122.681 62.7734 122.618 62.8516C122.556 62.9141 122.478 62.9297 122.384 62.8984C122.322 63.0078 122.228 63.0781 122.103 63.1094C121.993 63.125 121.954 63.1797 121.986 63.2734C121.861 63.3359 121.728 63.3906 121.587 63.4375C121.462 63.4688 121.384 63.5547 121.353 63.6953C121.306 63.6641 121.259 63.6562 121.212 63.6719C121.181 63.6875 121.142 63.6797 121.095 63.6484C121.079 63.6953 121.033 63.7422 120.954 63.7891C120.876 63.8359 120.822 63.8203 120.79 63.7422C120.665 63.8203 120.533 63.8984 120.392 63.9766C120.267 64.0391 120.142 64.0391 120.017 63.9766C119.892 64.0859 119.704 64.1328 119.454 64.1172C119.204 64.1172 119.009 64.1562 118.868 64.2344C118.712 64.1719 118.525 64.125 118.306 64.0938C118.103 64.0781 117.915 64.0703 117.743 64.0703C117.384 63.9922 117.072 63.9062 116.806 63.8125C116.556 63.7031 116.29 63.625 116.009 63.5781C115.947 63.4531 115.876 63.3594 115.798 63.2969C115.72 63.2188 115.642 63.1328 115.564 63.0391C115.392 62.9453 115.212 62.8438 115.025 62.7344C114.853 62.625 114.743 62.4844 114.697 62.3125C114.572 62.2344 114.439 62.1953 114.298 62.1953C114.173 62.1797 114.04 62.2031 113.9 62.2656C113.775 62.3125 113.658 62.3828 113.548 62.4766C113.439 62.5703 113.361 62.6641 113.314 62.7578C113.236 62.7422 113.189 62.7578 113.173 62.8047C113.158 62.8359 113.111 62.8438 113.033 62.8281C112.954 62.9844 112.884 63.1641 112.822 63.3672C112.759 63.5547 112.626 63.6797 112.423 63.7422C112.314 63.7109 112.267 63.6406 112.283 63.5312C112.298 63.4219 112.314 63.3203 112.329 63.2266C112.236 63.1484 112.197 63.0547 112.212 62.9453C112.243 62.8203 112.236 62.7109 112.189 62.6172C112.22 62.4766 112.22 62.3828 112.189 62.3359C112.173 62.2734 112.173 62.2031 112.189 62.125C112.142 62.0938 112.087 62.0781 112.025 62.0781C111.978 62.0781 111.931 62.0625 111.884 62.0312C111.868 61.9062 111.876 61.7344 111.908 61.5156C111.954 61.2969 112.04 61.1484 112.165 61.0703C112.181 60.9766 112.165 60.8984 112.118 60.8359C112.087 60.7734 112.048 60.7188 112.001 60.6719C111.954 60.625 111.908 60.5703 111.861 60.5078C111.829 60.4453 111.829 60.3594 111.861 60.25C111.923 60.25 111.97 60.2344 112.001 60.2031C112.033 60.1562 112.072 60.1328 112.118 60.1328C112.087 59.9141 112.087 59.7188 112.118 59.5469C112.165 59.375 112.126 59.2109 112.001 59.0547C111.892 59.0703 111.829 59.0391 111.814 58.9609C111.814 58.8672 111.837 58.8047 111.884 58.7734C111.915 58.6641 111.947 58.5781 111.978 58.5156C112.025 58.4375 112.064 58.3672 112.095 58.3047C112.126 58.2422 112.15 58.1797 112.165 58.1172C112.197 58.0547 112.197 57.9844 112.165 57.9062C112.243 57.8281 112.29 57.7031 112.306 57.5312C112.322 57.3594 112.345 57.2031 112.376 57.0625C112.408 56.9062 112.4 56.7734 112.353 56.6641C112.322 56.5547 112.314 56.4141 112.329 56.2422C112.486 56.1953 112.595 56.2188 112.658 56.3125C112.72 56.4062 112.767 56.5234 112.798 56.6641C112.829 56.8047 112.861 56.9453 112.892 57.0859C112.939 57.2109 113.025 57.2969 113.15 57.3438C113.181 57.3906 113.181 57.4297 113.15 57.4609C113.134 57.4922 113.142 57.5391 113.173 57.6016C113.142 57.7734 113.134 57.8906 113.15 57.9531C113.165 58.0156 113.189 58.0859 113.22 58.1641C113.298 58.1797 113.345 58.1719 113.361 58.1406C113.392 58.1094 113.431 58.0859 113.478 58.0703C113.556 58.2109 113.579 58.3047 113.548 58.3516C113.533 58.3828 113.501 58.4062 113.454 58.4219C113.423 58.5625 113.408 58.6719 113.408 58.75C113.408 58.8125 113.439 58.9297 113.501 59.1016C113.579 59.3359 113.65 59.5703 113.712 59.8047C113.775 60.0391 113.861 60.2422 113.97 60.4141C114.22 60.4141 114.376 60.4453 114.439 60.5078C114.501 60.5547 114.525 60.625 114.509 60.7188C114.493 60.7969 114.462 60.8828 114.415 60.9766C114.368 61.0703 114.322 61.1406 114.275 61.1875C114.368 61.4688 114.509 61.7031 114.697 61.8906C114.9 62.0781 115.087 62.2891 115.259 62.5234C115.353 62.6172 115.439 62.6719 115.517 62.6875C115.595 62.7031 115.673 62.7344 115.751 62.7812C115.908 62.875 116.056 62.9922 116.197 63.1328C116.337 63.2578 116.517 63.3359 116.736 63.3672C116.954 63.3984 117.165 63.4609 117.368 63.5547C117.587 63.6484 117.822 63.7109 118.072 63.7422C118.212 63.7578 118.353 63.7812 118.493 63.8125C118.65 63.8281 118.798 63.8359 118.939 63.8359C119.517 63.8047 120.048 63.6875 120.533 63.4844C121.033 63.2812 121.486 63.0703 121.892 62.8516C121.876 62.7891 121.861 62.7266 121.845 62.6641C121.829 62.6016 121.829 62.5156 121.845 62.4062C122.314 62.0312 122.548 61.3906 122.548 60.4844C122.486 60.5469 122.423 60.6016 122.361 60.6484C122.298 60.6953 122.204 60.7109 122.079 60.6953C122.033 60.5234 121.978 60.4375 121.915 60.4375C121.931 60.3594 121.993 60.2969 122.103 60.25C122.197 60.1562 122.22 60.0938 122.173 60.0625C122.126 60.0156 122.126 59.9531 122.173 59.875C122.22 59.8125 122.236 59.7109 122.22 59.5703C122.22 59.4141 122.173 59.3047 122.079 59.2422C122.033 59.3047 121.954 59.3516 121.845 59.3828C121.751 59.3984 121.65 59.4297 121.54 59.4766C121.447 59.3828 121.408 59.3203 121.423 59.2891C121.454 59.2578 121.454 59.2266 121.423 59.1953C121.454 59.1641 121.486 59.1406 121.517 59.125C121.548 59.0938 121.603 59.0859 121.681 59.1016C121.697 59.0234 121.712 58.9688 121.728 58.9375C121.743 58.8906 121.759 58.8359 121.775 58.7734C121.728 58.6641 121.665 58.6172 121.587 58.6328C121.525 58.6328 121.454 58.6641 121.376 58.7266C121.298 58.7734 121.22 58.8281 121.142 58.8906C121.064 58.9531 120.993 58.9922 120.931 59.0078C120.775 59.0391 120.658 58.9922 120.579 58.8672C120.501 58.7266 120.54 58.6094 120.697 58.5156C120.822 58.4375 120.861 58.3906 120.814 58.375C120.767 58.3438 120.767 58.3125 120.814 58.2812C121.001 58.2188 121.095 58.2109 121.095 58.2578C121.111 58.3047 121.134 58.3281 121.165 58.3281C121.197 58.2812 121.181 58.25 121.118 58.2344C121.056 58.2031 121.009 58.1719 120.978 58.1406C120.853 58.1562 120.728 58.2031 120.603 58.2812C120.493 58.3594 120.376 58.3906 120.251 58.375C120.048 58.4219 119.931 58.4141 119.9 58.3516C119.868 58.2891 119.861 58.2188 119.876 58.1406C119.908 58.0469 119.947 57.9688 119.993 57.9062C120.056 57.8281 120.126 57.7734 120.204 57.7422C120.158 57.5859 120.095 57.5312 120.017 57.5781C119.939 57.6094 119.845 57.6406 119.736 57.6719C119.642 57.7031 119.54 57.7109 119.431 57.6953C119.322 57.6797 119.228 57.6406 119.15 57.5781C119.118 57.4531 119.142 57.375 119.22 57.3438C119.298 57.3125 119.376 57.3125 119.454 57.3438C119.47 57.25 119.447 57.1953 119.384 57.1797C119.322 57.1484 119.283 57.0938 119.267 57.0156C119.142 57.0156 119.04 57.0547 118.962 57.1328C118.884 57.1953 118.806 57.2266 118.728 57.2266C118.712 57.2734 118.673 57.3125 118.611 57.3438C118.548 57.375 118.486 57.375 118.423 57.3438C118.392 57.5156 118.306 57.625 118.165 57.6719C118.025 57.7188 117.892 57.6953 117.767 57.6016C117.767 57.5234 117.783 57.4219 117.814 57.2969C117.908 57.2812 117.97 57.2578 118.001 57.2266C118.048 57.1953 118.118 57.1641 118.212 57.1328C118.384 57.1172 118.47 57.1016 118.47 57.0859C118.486 57.0703 118.501 57.0625 118.517 57.0625C118.454 57.0469 118.415 57.0156 118.4 56.9688C118.384 56.9062 118.353 56.8516 118.306 56.8047C118.197 56.8359 118.111 56.8359 118.048 56.8047C117.986 56.7578 117.892 56.7578 117.767 56.8047C117.72 56.7578 117.665 56.7188 117.603 56.6875C117.54 56.6406 117.493 56.5859 117.462 56.5234C117.243 56.5234 117.056 56.4844 116.9 56.4062C116.743 56.3125 116.556 56.25 116.337 56.2188C116.243 56.2344 116.142 56.2031 116.033 56.125C115.923 56.0469 115.806 56.0156 115.681 56.0312C115.587 56.0469 115.509 56.0859 115.447 56.1484C115.384 56.1953 115.298 56.2266 115.189 56.2422C115.142 56.2109 115.095 56.1797 115.048 56.1484C115.017 56.1172 114.978 56.0859 114.931 56.0547L114.65 55.6797C114.587 55.7109 114.54 55.7422 114.509 55.7734C114.478 55.8047 114.431 55.8281 114.368 55.8438C114.337 55.8125 114.298 55.7891 114.251 55.7734C114.22 55.7422 114.165 55.7422 114.087 55.7734C114.009 55.4766 113.908 55.3438 113.783 55.375C113.673 55.3906 113.556 55.4375 113.431 55.5156C113.306 55.5938 113.173 55.6719 113.033 55.75C112.908 55.8281 112.783 55.8281 112.658 55.75C112.72 55.5312 112.783 55.3828 112.845 55.3047C112.923 55.2109 113.025 55.2031 113.15 55.2812C113.087 55.0156 113.001 54.8906 112.892 54.9062C112.798 54.9062 112.697 54.9375 112.587 55C112.478 55.0625 112.368 55.1328 112.259 55.2109C112.15 55.2734 112.04 55.3125 111.931 55.3281C111.79 55.2812 111.712 55.1953 111.697 55.0703C111.743 54.9922 111.814 54.9297 111.908 54.8828C112.017 54.8203 112.118 54.7578 112.212 54.6953C112.306 54.6328 112.376 54.5625 112.423 54.4844C112.47 54.3906 112.462 54.2812 112.4 54.1562C112.306 54.1875 112.204 54.2188 112.095 54.25C112.001 54.2812 111.939 54.3359 111.908 54.4141C111.829 54.4141 111.783 54.4219 111.767 54.4375C111.751 54.4375 111.712 54.4297 111.65 54.4141C111.665 54.3516 111.681 54.3047 111.697 54.2734C111.712 54.2266 111.704 54.1719 111.673 54.1094C111.798 54.0625 111.908 53.9766 112.001 53.8516C112.095 53.7109 112.087 53.5625 111.978 53.4062C111.884 53.2656 111.822 53.1484 111.79 53.0547C111.759 52.9609 111.743 52.8516 111.743 52.7266C111.65 52.7422 111.587 52.7656 111.556 52.7969C111.525 52.8281 111.478 52.8281 111.415 52.7969C111.587 52.6719 111.642 52.6094 111.579 52.6094C111.517 52.6094 111.486 52.5859 111.486 52.5391C111.579 52.4766 111.611 52.4297 111.579 52.3984C111.564 52.3672 111.579 52.3359 111.626 52.3047C111.564 52.2734 111.501 52.2656 111.439 52.2812C111.392 52.2812 111.353 52.2734 111.322 52.2578C111.368 52.0703 111.361 51.9766 111.298 51.9766C111.236 51.7891 111.212 51.6797 111.228 51.6484C111.243 51.6172 111.251 51.5469 111.251 51.4375C111.345 51.4062 111.423 51.3281 111.486 51.2031C111.486 50.8906 111.517 50.5625 111.579 50.2188C111.658 49.875 111.783 49.5938 111.954 49.375C112.033 49.1562 112.111 48.9375 112.189 48.7188C112.283 48.4844 112.384 48.2734 112.493 48.0859C112.493 47.9766 112.517 47.8906 112.564 47.8281C112.611 47.75 112.665 47.6875 112.728 47.6406C112.79 47.5781 112.845 47.5156 112.892 47.4531C112.954 47.3906 112.993 47.3125 113.009 47.2188C113.259 47.2656 113.408 47.25 113.454 47.1719C113.501 47.0781 113.595 47.0156 113.736 46.9844C113.892 46.8125 114.087 46.6719 114.322 46.5625C114.556 46.4375 114.814 46.3438 115.095 46.2812C115.376 46.2031 115.665 46.1484 115.962 46.1172C116.275 46.0703 116.572 46.0469 116.853 46.0469C116.962 46.0469 117.079 46.0469 117.204 46.0469C117.329 46.0469 117.408 46.1016 117.439 46.2109C117.704 46.2891 117.939 46.3359 118.142 46.3516C118.361 46.3516 118.54 46.4531 118.681 46.6562C118.962 46.6719 119.158 46.8125 119.267 47.0781C119.392 47.125 119.517 47.1641 119.642 47.1953C119.767 47.2266 119.876 47.2812 119.97 47.3594C119.986 47.4688 120.033 47.5469 120.111 47.5938C120.189 47.6406 120.283 47.6719 120.392 47.6875C120.501 47.6875 120.611 47.6797 120.72 47.6641C120.845 47.6484 120.954 47.625 121.048 47.5938C121.283 47.5312 121.478 47.4219 121.634 47.2656C121.79 47.0938 121.931 46.9453 122.056 46.8203C122.025 46.6641 122.056 46.5234 122.15 46.3984C122.243 46.2734 122.306 46.125 122.337 45.9531C122.478 45.9375 122.579 45.9609 122.642 46.0234C122.72 46.0859 122.767 46.1719 122.783 46.2812C122.798 46.3906 122.79 46.5 122.759 46.6094C122.728 46.7031 122.681 46.7734 122.618 46.8203C122.65 46.8984 122.658 47.0078 122.642 47.1484C122.626 47.2891 122.603 47.3984 122.572 47.4766C122.634 47.7578 122.65 47.9766 122.618 48.1328C122.603 48.2891 122.65 48.4688 122.759 48.6719C122.743 48.8281 122.736 48.9922 122.736 49.1641C122.751 49.3203 122.806 49.4609 122.9 49.5859C122.806 49.9922 122.798 50.3438 122.876 50.6406C122.97 50.9375 122.993 51.2031 122.947 51.4375C122.915 51.5312 122.853 51.625 122.759 51.7188C122.681 51.8125 122.564 51.8438 122.408 51.8125C122.329 51.5625 122.22 51.3203 122.079 51.0859C121.939 50.8516 121.759 50.6484 121.54 50.4766C121.525 50.3672 121.525 50.2812 121.54 50.2188C121.572 50.1406 121.572 50.0625 121.54 49.9844C121.368 49.875 121.283 49.75 121.283 49.6094C121.22 49.5938 121.158 49.6016 121.095 49.6328C121.033 49.6641 120.978 49.6406 120.931 49.5625C120.978 49.4844 120.993 49.4297 120.978 49.3984C120.962 49.3672 120.939 49.3281 120.908 49.2812C120.861 49.25 120.814 49.2188 120.767 49.1875C120.72 49.1406 120.712 49.1016 120.743 49.0703C120.665 49.0391 120.603 48.9922 120.556 48.9297C120.509 48.8672 120.454 48.8203 120.392 48.7891C120.392 48.5391 120.314 48.3594 120.158 48.25C120.017 48.1406 119.931 48.0078 119.9 47.8516C119.681 47.7734 119.501 47.6719 119.361 47.5469C119.22 47.4219 119.048 47.3203 118.845 47.2422C118.673 47.1641 118.548 47.1172 118.47 47.1016C118.392 47.0703 118.314 47.0391 118.236 47.0078C118.173 46.9609 118.111 46.9219 118.048 46.8906C117.986 46.8438 117.908 46.8047 117.814 46.7734C117.595 46.7578 117.384 46.7266 117.181 46.6797C116.993 46.6172 116.79 46.5625 116.572 46.5156C116.4 46.5781 116.197 46.625 115.962 46.6562C115.743 46.6719 115.54 46.6641 115.353 46.6328C115.228 46.6953 115.118 46.75 115.025 46.7969C114.947 46.8281 114.868 46.8672 114.79 46.9141C114.915 47.0703 114.947 47.1641 114.884 47.1953C114.822 47.2109 114.736 47.2109 114.626 47.1953C114.533 47.2266 114.447 47.2266 114.368 47.1953C114.212 47.2734 114.142 47.3281 114.158 47.3594C114.189 47.375 114.189 47.3906 114.158 47.4062C114.064 47.4062 113.993 47.4375 113.947 47.5C113.9 47.5625 113.845 47.6328 113.783 47.7109C113.736 47.7891 113.681 47.8594 113.618 47.9219C113.556 47.9844 113.47 48.0234 113.361 48.0391C113.361 48.1016 113.353 48.1562 113.337 48.2031C113.322 48.2344 113.314 48.2812 113.314 48.3438C113.454 48.4219 113.493 48.4922 113.431 48.5547C113.384 48.6172 113.376 48.6719 113.408 48.7188C113.361 48.8125 113.298 48.875 113.22 48.9062C113.267 49.0312 113.298 49.1641 113.314 49.3047C113.329 49.4297 113.376 49.5469 113.454 49.6562C113.392 49.6875 113.384 49.7578 113.431 49.8672C113.478 49.9766 113.548 50.0312 113.642 50.0312C113.673 50.1719 113.743 50.2734 113.853 50.3359C113.962 50.3984 114.087 50.4453 114.228 50.4766C114.212 50.5547 114.181 50.6094 114.134 50.6406C114.103 50.6719 114.072 50.7031 114.04 50.7344C114.072 50.8594 114.15 50.9297 114.275 50.9453C114.4 50.9609 114.525 50.9922 114.65 51.0391C114.743 51.2422 114.829 51.3828 114.908 51.4609C115.001 51.5234 115.126 51.5625 115.283 51.5781C115.548 51.7969 115.837 51.9766 116.15 52.1172C116.478 52.2578 116.814 52.4062 117.158 52.5625C117.314 52.5625 117.454 52.5781 117.579 52.6094C117.704 52.6406 117.822 52.6797 117.931 52.7266C118.056 52.7734 118.173 52.8203 118.283 52.8672C118.392 52.8984 118.509 52.9141 118.634 52.9141C118.884 52.9453 119.15 52.9922 119.431 53.0547C119.728 53.1016 119.97 53.1328 120.158 53.1484C120.329 53.2578 120.548 53.3516 120.814 53.4297C121.095 53.4922 121.345 53.4922 121.564 53.4297C121.72 53.4922 121.798 53.5 121.798 53.4531C121.814 53.4062 121.853 53.3906 121.915 53.4062C121.868 53.5781 121.868 53.6484 121.915 53.6172C121.962 53.5859 121.993 53.6016 122.009 53.6641C122.087 53.4922 122.095 53.4219 122.033 53.4531C121.986 53.4844 121.978 53.4609 122.009 53.3828C122.087 53.3516 122.15 53.3828 122.197 53.4766C122.243 53.5547 122.306 53.5469 122.384 53.4531C122.353 53.6719 122.314 53.7891 122.267 53.8047C122.236 53.8047 122.204 53.8203 122.173 53.8516C122.236 53.9609 122.322 54.0391 122.431 54.0859C122.54 54.1328 122.658 54.1797 122.783 54.2266C122.892 54.4609 123.033 54.6484 123.204 54.7891C123.392 54.9141 123.486 55.1016 123.486 55.3516C123.579 55.5234 123.665 55.6953 123.743 55.8672C123.822 56.0391 123.884 56.2344 123.931 56.4531C123.993 56.5312 124.025 56.6562 124.025 56.8281C124.04 56.9844 124.118 57.0781 124.259 57.1094C124.212 57.2031 124.197 57.2734 124.212 57.3203C124.228 57.3672 124.236 57.4141 124.236 57.4609C124.267 57.7578 124.298 57.9766 124.329 58.1172C124.361 58.2422 124.376 58.4141 124.376 58.6328ZM122.337 48.0859C122.197 48.1797 122.087 48.25 122.009 48.2969C121.947 48.3281 121.892 48.3516 121.845 48.3672C121.939 48.4453 121.978 48.5391 121.962 48.6484C121.947 48.7422 121.923 48.8438 121.892 48.9531C122.001 48.9531 122.072 48.9219 122.103 48.8594C122.134 48.7812 122.189 48.7188 122.267 48.6719C122.408 48.6875 122.454 48.625 122.408 48.4844C122.361 48.3438 122.337 48.2109 122.337 48.0859ZM122.478 49.3984C122.447 49.3203 122.439 49.25 122.454 49.1875C122.486 49.125 122.486 49.0625 122.454 49C122.329 48.9844 122.259 49.0156 122.243 49.0938C122.228 49.1719 122.165 49.2031 122.056 49.1875C122.087 49.3906 122.142 49.4844 122.22 49.4688C122.314 49.4375 122.4 49.4141 122.478 49.3984ZM121.142 48.1094C121.064 48.1094 120.993 48.125 120.931 48.1562C120.884 48.1719 120.806 48.1719 120.697 48.1562C120.665 48.2031 120.673 48.2422 120.72 48.2734C120.783 48.3047 120.814 48.3438 120.814 48.3906C120.861 48.3438 120.915 48.3047 120.978 48.2734C121.056 48.2422 121.111 48.1875 121.142 48.1094ZM122.478 50.9922C122.634 50.9141 122.681 50.7812 122.618 50.5938C122.556 50.4062 122.501 50.2578 122.454 50.1484C122.329 50.2422 122.267 50.3906 122.267 50.5938C122.267 50.7812 122.337 50.9141 122.478 50.9922ZM121.868 54.4141C121.868 54.3359 121.837 54.2969 121.775 54.2969C121.728 54.2969 121.704 54.2578 121.704 54.1797C121.626 54.2266 121.556 54.25 121.493 54.25C121.447 54.25 121.415 54.2812 121.4 54.3438C121.54 54.4062 121.634 54.4375 121.681 54.4375C121.728 54.4219 121.79 54.4141 121.868 54.4141ZM120.79 53.875C120.728 53.8594 120.689 53.8281 120.673 53.7812C120.673 53.7188 120.634 53.6953 120.556 53.7109C120.525 53.7422 120.493 53.7734 120.462 53.8047C120.431 53.8203 120.376 53.8281 120.298 53.8281C120.392 53.875 120.47 53.9219 120.533 53.9688C120.517 53.8906 120.54 53.8672 120.603 53.8984C120.665 53.9141 120.728 53.9062 120.79 53.875ZM121.353 54.625C121.353 54.5156 121.306 54.4688 121.212 54.4844C121.118 54.5 121.056 54.5312 121.025 54.5781C121.072 54.6406 121.118 54.6562 121.165 54.625C121.212 54.5938 121.275 54.5938 121.353 54.625ZM119.853 53.4766C119.759 53.5234 119.689 53.5234 119.642 53.4766C119.595 53.4297 119.509 53.4141 119.384 53.4297C119.353 53.5078 119.298 53.5547 119.22 53.5703C119.158 53.5859 119.087 53.6094 119.009 53.6406C119.103 53.7031 119.236 53.7266 119.408 53.7109C119.595 53.6953 119.743 53.6172 119.853 53.4766ZM119.876 54.1094C119.845 54.0781 119.775 54.0625 119.665 54.0625C119.572 54.0625 119.54 54.1016 119.572 54.1797C119.603 54.2109 119.65 54.2109 119.712 54.1797C119.775 54.1484 119.829 54.125 119.876 54.1094ZM123.04 58.4453C123.025 58.4141 123.009 58.375 122.993 58.3281C122.993 58.2656 122.986 58.2188 122.97 58.1875C122.908 58.2812 122.892 58.3438 122.923 58.375C122.97 58.3906 123.009 58.4141 123.04 58.4453ZM118.587 54.1094C118.556 54.0312 118.509 53.9922 118.447 53.9922C118.384 53.9922 118.329 54.0078 118.283 54.0391C118.298 54.1016 118.337 54.1328 118.4 54.1328C118.462 54.1328 118.525 54.125 118.587 54.1094ZM122.408 57.7656C122.251 57.75 122.142 57.7344 122.079 57.7188C122.017 57.6875 121.993 57.7031 122.009 57.7656C122.056 57.8125 122.111 57.8359 122.173 57.8359C122.236 57.8203 122.306 57.8281 122.384 57.8594L122.408 57.7656ZM121.423 54.0391C121.408 53.9766 121.353 53.9531 121.259 53.9688C121.165 53.9844 121.103 53.9766 121.072 53.9453C120.915 54.0391 120.814 54.0781 120.767 54.0625C120.736 54.0312 120.689 54.0312 120.626 54.0625C120.423 54.0156 120.322 54.0156 120.322 54.0625C120.322 54.0938 120.298 54.1094 120.251 54.1094C120.173 54.0156 120.087 54.0078 119.993 54.0859C119.915 54.1484 119.884 54.2422 119.9 54.3672C119.9 54.5547 119.853 54.6328 119.759 54.6016C119.665 54.5703 119.579 54.5547 119.501 54.5547C119.517 54.6328 119.478 54.6797 119.384 54.6953C119.306 54.6953 119.306 54.7344 119.384 54.8125C119.322 54.8281 119.259 54.8359 119.197 54.8359C119.134 54.8203 119.072 54.8281 119.009 54.8594C118.9 54.9219 118.822 54.9922 118.775 55.0703C118.728 55.1328 118.642 55.1641 118.517 55.1641C118.314 55.3672 118.111 55.5234 117.908 55.6328C117.704 55.7422 117.517 55.8828 117.345 56.0547C117.548 56.1641 117.712 56.2031 117.837 56.1719C117.978 56.1406 118.158 56.1016 118.376 56.0547C118.595 55.9141 118.751 55.8203 118.845 55.7734C118.923 55.6641 118.993 55.5938 119.056 55.5625C119.134 55.5156 119.197 55.4531 119.243 55.375C119.337 55.375 119.4 55.3516 119.431 55.3047C119.478 55.2578 119.564 55.2422 119.689 55.2578C119.814 55.1328 119.908 55.0312 119.97 54.9531C120.048 54.875 120.158 54.8281 120.298 54.8125C120.454 54.7344 120.533 54.7109 120.533 54.7422C120.548 54.7578 120.579 54.7656 120.626 54.7656C120.704 54.6562 120.775 54.6016 120.837 54.6016C120.884 54.5078 120.915 54.4453 120.931 54.4141C120.947 54.3828 120.993 54.3828 121.072 54.4141C121.072 54.3359 121.103 54.2891 121.165 54.2734C121.243 54.2422 121.275 54.2031 121.259 54.1562L121.423 54.0391ZM121.048 56.875C120.986 56.8438 120.954 56.8047 120.954 56.7578C120.97 56.7109 120.947 56.6719 120.884 56.6406C120.884 56.7812 120.9 56.8672 120.931 56.8984C120.962 56.9297 121.001 56.9219 121.048 56.875ZM121.751 57.4141C121.704 57.3828 121.689 57.3438 121.704 57.2969C121.736 57.2344 121.712 57.1953 121.634 57.1797C121.509 57.2109 121.408 57.2578 121.329 57.3203C121.267 57.3828 121.212 57.4297 121.165 57.4609C121.243 57.5078 121.329 57.5156 121.423 57.4844C121.517 57.4375 121.626 57.4141 121.751 57.4141ZM122.736 58.5625C122.658 58.5938 122.611 58.5859 122.595 58.5391C122.595 58.4922 122.556 58.4844 122.478 58.5156C122.65 58.6094 122.736 58.625 122.736 58.5625ZM120.579 56.8281C120.564 56.7344 120.501 56.6641 120.392 56.6172C120.267 56.7578 120.243 56.8281 120.322 56.8281C120.415 56.8281 120.501 56.8281 120.579 56.8281ZM124.001 58.1641C124.033 57.9922 124.017 57.8828 123.954 57.8359C123.892 57.7734 123.837 57.7031 123.79 57.625C123.868 57.6094 123.892 57.5625 123.861 57.4844C123.845 57.3906 123.868 57.3203 123.931 57.2734C123.884 57.2266 123.845 57.1953 123.814 57.1797C123.798 57.1484 123.767 57.1172 123.72 57.0859C123.798 56.9609 123.798 56.7891 123.72 56.5703C123.642 56.3516 123.556 56.1953 123.462 56.1016C123.431 55.9766 123.384 55.8906 123.322 55.8438C123.29 55.875 123.243 55.8828 123.181 55.8672C123.118 55.8516 123.064 55.8594 123.017 55.8906C123.111 55.9219 123.181 55.9297 123.228 55.9141C123.275 55.8984 123.306 55.9062 123.322 55.9375C123.322 56.0469 123.259 56.1172 123.134 56.1484C122.915 56.0234 122.79 55.9766 122.759 56.0078C122.743 56.2109 122.704 56.3516 122.642 56.4297C122.595 56.4922 122.533 56.5469 122.454 56.5938C122.376 56.625 122.283 56.6406 122.173 56.6406C122.079 56.625 121.993 56.6016 121.915 56.5703C121.962 56.4922 122.025 56.4609 122.103 56.4766C122.181 56.4922 122.251 56.5156 122.314 56.5469C122.361 56.4688 122.376 56.3906 122.361 56.3125C122.345 56.2344 122.353 56.1797 122.384 56.1484C122.618 55.9922 122.743 55.875 122.759 55.7969C122.915 55.7656 123.009 55.7344 123.04 55.7031C123.072 55.6562 123.118 55.6562 123.181 55.7031C123.243 55.4219 123.204 55.2109 123.064 55.0703C122.923 54.9297 122.783 54.7969 122.642 54.6719C122.564 54.7031 122.509 54.7031 122.478 54.6719C122.447 54.6406 122.4 54.6172 122.337 54.6016C122.243 54.6328 122.197 54.6719 122.197 54.7188C122.197 54.75 122.158 54.7422 122.079 54.6953C122.048 54.7734 122.048 54.8281 122.079 54.8594C122.126 54.8906 122.118 54.9219 122.056 54.9531C122.056 54.9062 122.04 54.8828 122.009 54.8828C121.978 54.8828 121.939 54.8828 121.892 54.8828C121.861 54.8828 121.829 54.8828 121.798 54.8828C121.783 54.8672 121.775 54.8359 121.775 54.7891C121.853 54.7891 121.9 54.7578 121.915 54.6953C121.947 54.6328 122.001 54.6172 122.079 54.6484C122.033 54.6172 121.97 54.6016 121.892 54.6016C121.814 54.6016 121.775 54.6406 121.775 54.7188C121.697 54.5938 121.634 54.5391 121.587 54.5547C121.556 54.5547 121.525 54.5625 121.493 54.5781C121.384 54.7188 121.306 54.8047 121.259 54.8359C121.212 54.8672 121.165 54.8984 121.118 54.9297C121.072 54.9453 121.025 54.9609 120.978 54.9766C120.947 54.9922 120.908 54.9844 120.861 54.9531C120.783 55.0781 120.689 55.1641 120.579 55.2109C120.486 55.2578 120.353 55.2969 120.181 55.3281C120.009 55.4844 119.876 55.5938 119.783 55.6562C119.689 55.7031 119.618 55.7031 119.572 55.6562C119.572 55.7812 119.501 55.8828 119.361 55.9609C119.236 56.0391 119.111 56.0703 118.986 56.0547C118.861 56.1641 118.783 56.2422 118.751 56.2891C118.736 56.3359 118.712 56.375 118.681 56.4062C118.728 56.4375 118.775 56.4609 118.822 56.4766C118.868 56.4922 118.915 56.5156 118.962 56.5469C118.993 56.4531 119.064 56.4062 119.173 56.4062C119.298 56.3906 119.392 56.3438 119.454 56.2656C119.501 56.3281 119.548 56.3516 119.595 56.3359C119.642 56.3047 119.689 56.25 119.736 56.1719C119.767 56.0938 119.853 56.0938 119.993 56.1719C119.962 55.9688 119.993 55.8594 120.087 55.8438C120.181 55.8281 120.267 55.7656 120.345 55.6562C120.486 55.7344 120.54 55.7969 120.509 55.8438C120.478 55.875 120.431 55.9219 120.368 55.9844C120.322 55.9844 120.267 55.9766 120.204 55.9609C120.158 55.9297 120.126 55.9531 120.111 56.0312C120.267 56.0781 120.376 56.1016 120.439 56.1016C120.517 56.1016 120.595 56.0859 120.673 56.0547C120.626 56.1016 120.556 56.1562 120.462 56.2188C120.384 56.2812 120.283 56.2969 120.158 56.2656C120.064 56.4219 119.986 56.5312 119.923 56.5938C119.861 56.6562 119.798 56.7266 119.736 56.8047C119.814 56.8203 119.884 56.8125 119.947 56.7812C120.009 56.7344 120.064 56.6875 120.111 56.6406C120.173 56.5938 120.228 56.5469 120.275 56.5C120.337 56.4531 120.408 56.4219 120.486 56.4062C120.673 56.4219 120.759 56.4609 120.743 56.5234C120.79 56.5078 120.845 56.5 120.908 56.5C120.986 56.4844 121.056 56.4375 121.118 56.3594C121.134 56.2344 121.173 56.1562 121.236 56.125C121.298 56.0938 121.353 56.0625 121.4 56.0312C121.493 56.0312 121.54 56.0781 121.54 56.1719C121.556 56.2656 121.626 56.3047 121.751 56.2891C121.736 56.2266 121.767 56.2109 121.845 56.2422C121.939 56.2578 122.001 56.2266 122.033 56.1484C121.923 56.1797 121.845 56.1719 121.798 56.125C121.751 56.0625 121.751 55.9922 121.798 55.9141C121.798 55.7578 121.798 55.6641 121.798 55.6328C121.892 55.6641 121.954 55.6484 121.986 55.5859C122.033 55.5078 122.087 55.5078 122.15 55.5859C122.15 55.4922 122.165 55.4297 122.197 55.3984C122.228 55.3516 122.259 55.3047 122.29 55.2578C122.431 55.2734 122.509 55.2812 122.525 55.2812C122.54 55.2812 122.556 55.2812 122.572 55.2812C122.603 55.2812 122.626 55.2812 122.642 55.2812C122.673 55.2812 122.697 55.3047 122.712 55.3516C122.634 55.3672 122.579 55.4062 122.548 55.4688C122.533 55.5312 122.486 55.5625 122.408 55.5625C122.361 55.5469 122.314 55.5625 122.267 55.6094C122.22 55.6406 122.181 55.6875 122.15 55.75C122.056 55.9219 121.978 56.0078 121.915 56.0078C121.868 56.0078 121.837 56.0312 121.822 56.0781C121.884 56.0781 121.947 56.0625 122.009 56.0312C122.072 55.9844 122.126 55.9766 122.173 56.0078C122.22 56.1797 122.212 56.2812 122.15 56.3125C122.087 56.3281 122.04 56.3047 122.009 56.2422C121.947 56.3828 121.853 56.4844 121.728 56.5469C121.603 56.6094 121.509 56.6016 121.447 56.5234C121.384 56.7109 121.322 56.8203 121.259 56.8516C121.197 56.8828 121.15 56.9141 121.118 56.9453C121.087 56.9766 121.001 57.0078 120.861 57.0391C120.72 57.0547 120.642 57.125 120.626 57.25C120.783 57.2188 120.908 57.1953 121.001 57.1797C121.095 57.1641 121.204 57.1328 121.329 57.0859C121.439 57.0547 121.54 57.0703 121.634 57.1328C121.728 57.1797 121.79 57.1641 121.822 57.0859C121.9 57.1797 121.962 57.2109 122.009 57.1797C122.056 57.1328 122.095 57.1328 122.126 57.1797C122.251 57.1016 122.329 57.0547 122.361 57.0391C122.408 57.0078 122.439 57.0078 122.454 57.0391C122.454 57.0859 122.486 57.1094 122.548 57.1094C122.611 57.1094 122.673 57.1016 122.736 57.0859C122.704 57.3203 122.642 57.4375 122.548 57.4375C122.47 57.4375 122.415 57.4766 122.384 57.5547C122.306 57.5391 122.236 57.5312 122.173 57.5312C122.126 57.5156 122.079 57.4922 122.033 57.4609C122.017 57.5703 122.033 57.625 122.079 57.625C122.142 57.6094 122.212 57.6016 122.29 57.6016C122.368 57.6953 122.423 57.7344 122.454 57.7188C122.486 57.6875 122.525 57.6875 122.572 57.7188C122.697 57.7031 122.775 57.6875 122.806 57.6719C122.837 57.6406 122.868 57.6172 122.9 57.6016C122.837 57.6484 122.79 57.7109 122.759 57.7891C122.728 57.8672 122.658 57.9141 122.548 57.9297C122.454 57.9609 122.361 57.9844 122.267 58C122.189 58 122.126 58.0234 122.079 58.0703C122.033 58.2891 122.017 58.4062 122.033 58.4219C122.064 58.4375 122.095 58.4453 122.126 58.4453C122.173 58.4453 122.212 58.4453 122.243 58.4453C122.29 58.4453 122.329 58.4531 122.361 58.4688C122.454 58.3906 122.525 58.375 122.572 58.4219C122.618 58.4531 122.65 58.4531 122.665 58.4219C122.853 58.2031 122.978 58.0703 123.04 58.0234C123.087 58.0547 123.126 58.0859 123.158 58.1172C123.204 58.1484 123.251 58.1562 123.298 58.1406C123.298 58.2031 123.314 58.25 123.345 58.2812C123.376 58.2969 123.408 58.3281 123.439 58.375C123.376 58.375 123.329 58.3984 123.298 58.4453C123.267 58.4766 123.228 58.4766 123.181 58.4453C123.103 58.5078 123.048 58.5312 123.017 58.5156C122.986 58.4844 122.931 58.4844 122.853 58.5156C122.868 58.5625 122.861 58.6094 122.829 58.6562C122.814 58.7031 122.806 58.7422 122.806 58.7734C122.712 58.8828 122.618 58.9688 122.525 59.0312C122.431 59.0781 122.376 59.1562 122.361 59.2656C122.486 59.2812 122.579 59.2891 122.642 59.2891C122.704 59.2734 122.775 59.25 122.853 59.2188C122.884 59.3594 122.892 59.4609 122.876 59.5234C122.704 59.5234 122.618 59.5625 122.618 59.6406C122.712 59.7188 122.743 59.7734 122.712 59.8047C122.697 59.8359 122.681 59.8672 122.665 59.8984C122.712 59.9766 122.767 60.0078 122.829 59.9922C122.892 59.9766 122.97 59.9688 123.064 59.9688C123.142 59.8125 123.197 59.7422 123.228 59.7578C123.275 59.7578 123.337 59.7422 123.415 59.7109C123.493 59.8672 123.486 59.9609 123.392 59.9922C123.314 60.0078 123.22 60.0469 123.111 60.1094C123.111 60.25 123.04 60.3516 122.9 60.4141C122.884 60.4297 122.884 60.5078 122.9 60.6484C122.915 60.7734 122.915 60.8672 122.9 60.9297C122.947 60.9609 123.009 60.9531 123.087 60.9062C123.181 60.8594 123.251 60.875 123.298 60.9531C123.376 60.8438 123.415 60.7656 123.415 60.7188C123.431 60.6562 123.408 60.6094 123.345 60.5781C123.408 60.6875 123.47 60.7578 123.533 60.7891C123.595 60.8047 123.611 60.8516 123.579 60.9297C123.423 61.0703 123.322 61.1562 123.275 61.1875C123.228 61.2031 123.181 61.2266 123.134 61.2578C123.243 61.3047 123.329 61.2969 123.392 61.2344C123.47 61.1719 123.572 61.125 123.697 61.0938C123.697 61.0312 123.712 60.9688 123.743 60.9062C123.775 60.8281 123.798 60.7578 123.814 60.6953C123.845 60.6328 123.853 60.5781 123.837 60.5312C123.837 60.4844 123.806 60.4453 123.743 60.4141C123.618 60.3828 123.548 60.3828 123.533 60.4141C123.517 60.4453 123.486 60.4531 123.439 60.4375C123.611 60.3125 123.697 60.2266 123.697 60.1797C123.712 60.1328 123.751 60.1094 123.814 60.1094C123.845 60.0312 123.829 59.9922 123.767 59.9922C123.704 59.9766 123.658 59.9453 123.626 59.8984C123.673 59.7891 123.72 59.7109 123.767 59.6641C123.829 59.6172 123.892 59.6328 123.954 59.7109C124.033 59.4766 124.064 59.2422 124.048 59.0078C124.033 58.7734 123.993 58.5469 123.931 58.3281L124.001 58.1641ZM112.915 49.5625C112.931 49.5 112.939 49.4297 112.939 49.3516C112.954 49.2578 112.947 49.1719 112.915 49.0938C112.775 49.1719 112.642 49.2734 112.517 49.3984C112.392 49.5234 112.283 49.6484 112.189 49.7734C112.236 49.8047 112.275 49.8125 112.306 49.7969C112.353 49.7812 112.4 49.7891 112.447 49.8203C112.447 49.6797 112.47 49.6172 112.517 49.6328C112.579 49.6328 112.634 49.6406 112.681 49.6562C112.728 49.6562 112.767 49.6562 112.798 49.6562C112.845 49.6406 112.884 49.6094 112.915 49.5625ZM119.478 53.9219C119.384 53.9688 119.283 54.0312 119.173 54.1094C119.079 54.1719 118.97 54.1719 118.845 54.1094C118.736 54.2188 118.603 54.3281 118.447 54.4375C118.306 54.5312 118.158 54.5859 118.001 54.6016C117.97 54.6953 117.9 54.7734 117.79 54.8359C117.681 54.8828 117.564 54.8828 117.439 54.8359C117.376 54.8828 117.322 54.9453 117.275 55.0234C117.228 55.0859 117.158 55.1016 117.064 55.0703C116.939 55.2109 116.79 55.3281 116.618 55.4219C116.462 55.5 116.329 55.6172 116.22 55.7734C116.345 55.8672 116.478 55.8828 116.618 55.8203C116.759 55.7422 116.884 55.6953 116.993 55.6797C117.228 55.4766 117.408 55.3672 117.533 55.3516C117.533 55.2578 117.556 55.2109 117.603 55.2109C117.65 55.1953 117.704 55.2031 117.767 55.2344C117.783 55.125 117.829 55.0391 117.908 54.9766C118.001 54.9141 118.095 54.8672 118.189 54.8359C118.283 54.8047 118.376 54.7734 118.47 54.7422C118.579 54.7109 118.665 54.6562 118.728 54.5781C118.822 54.4219 118.931 54.3359 119.056 54.3203C119.197 54.3047 119.29 54.2344 119.337 54.1094L119.478 53.9219ZM118.283 55.3047C118.251 55.2734 118.228 55.2344 118.212 55.1875C118.197 55.125 118.15 55.0938 118.072 55.0938C118.072 55.1562 118.04 55.2031 117.978 55.2344C117.915 55.25 117.9 55.2812 117.931 55.3281C117.978 55.2812 118.033 55.2734 118.095 55.3047C118.173 55.3359 118.236 55.3359 118.283 55.3047ZM121.095 58.3281C121.033 58.3906 120.97 58.4453 120.908 58.4922C120.861 58.5234 120.861 58.5547 120.908 58.5859C120.939 58.5547 120.978 58.5234 121.025 58.4922C121.072 58.4609 121.095 58.4062 121.095 58.3281ZM118.986 53.5234C118.97 53.4609 118.939 53.4297 118.892 53.4297C118.845 53.4141 118.79 53.4219 118.728 53.4531C118.681 53.4688 118.626 53.4844 118.564 53.5C118.517 53.5156 118.478 53.5078 118.447 53.4766C118.384 53.3984 118.345 53.3203 118.329 53.2422C118.314 53.1484 118.228 53.125 118.072 53.1719C118.04 53.0938 117.978 53.0469 117.884 53.0312C117.79 53 117.72 53.0234 117.673 53.1016V53.4297C117.548 53.5078 117.478 53.5469 117.462 53.5469C117.447 53.5312 117.423 53.5391 117.392 53.5703C117.345 53.4922 117.322 53.5156 117.322 53.6406C117.337 53.75 117.29 53.7891 117.181 53.7578C117.025 53.9297 116.783 54.0469 116.454 54.1094C116.314 54.2031 116.228 54.3125 116.197 54.4375C116.056 54.4844 115.962 54.5156 115.915 54.5312C115.884 54.5469 115.876 54.5938 115.892 54.6719C115.861 54.5469 115.822 54.4688 115.775 54.4375C115.743 54.3906 115.767 54.3125 115.845 54.2031C115.861 54.25 115.892 54.2344 115.939 54.1562C116.001 54.0781 116.072 54.0703 116.15 54.1328C116.275 54.0078 116.353 53.9297 116.384 53.8984C116.431 53.8672 116.493 53.8672 116.572 53.8984C116.728 53.7891 116.814 53.7109 116.829 53.6641C116.845 53.6172 116.892 53.6016 116.97 53.6172C116.97 53.4609 116.993 53.3906 117.04 53.4062C117.087 53.4062 117.079 53.3828 117.017 53.3359L117.251 53.1484C117.314 53.1484 117.353 53.1328 117.368 53.1016C117.4 53.0703 117.447 53.0625 117.509 53.0781C117.431 52.9688 117.361 52.8984 117.298 52.8672C117.173 52.8516 117.064 52.8438 116.97 52.8438C116.876 52.8438 116.79 52.8203 116.712 52.7734C116.665 52.9297 116.618 53.0234 116.572 53.0547C116.54 53.0859 116.493 53.1094 116.431 53.125C116.322 53.2031 116.243 53.2656 116.197 53.3125C116.165 53.3438 116.126 53.3594 116.079 53.3594C116.017 53.4062 115.954 53.4375 115.892 53.4531C115.829 53.4531 115.814 53.4922 115.845 53.5703C115.767 53.6172 115.673 53.6172 115.564 53.5703C115.454 53.7266 115.368 53.8047 115.306 53.8047C115.243 53.8047 115.197 53.8281 115.165 53.875C115.087 54.0625 115.033 54.1641 115.001 54.1797C114.97 54.1797 114.954 54.1953 114.954 54.2266C115.126 54.1953 115.197 54.1719 115.165 54.1562C115.15 54.125 115.158 54.1094 115.189 54.1094C115.298 54.1094 115.376 54.1016 115.423 54.0859C115.486 54.0547 115.587 54.0391 115.728 54.0391C115.743 53.9453 115.79 53.875 115.868 53.8281C115.962 53.7656 116.048 53.7422 116.126 53.7578C116.236 53.7109 116.345 53.6641 116.454 53.6172C116.579 53.5703 116.658 53.5156 116.689 53.4531C116.626 53.625 116.548 53.7188 116.454 53.7344C116.236 53.875 115.993 54.0078 115.728 54.1328C115.478 54.2422 115.243 54.3828 115.025 54.5547C114.853 54.6953 114.72 54.7734 114.626 54.7891C114.533 54.7891 114.447 54.8281 114.368 54.9062C114.431 55.0781 114.493 55.1406 114.556 55.0938C114.634 55.0469 114.712 55.0469 114.79 55.0938C114.822 55.0625 114.861 55.0547 114.908 55.0703C114.97 55.0859 115.017 55.0781 115.048 55.0469C115.017 54.9688 115.025 54.9219 115.072 54.9062C115.118 54.875 115.134 54.8359 115.118 54.7891C115.243 54.7891 115.322 54.7969 115.353 54.8125C115.384 54.8125 115.408 54.8281 115.423 54.8594C115.298 54.8906 115.236 54.9609 115.236 55.0703C115.314 55.0859 115.361 55.0781 115.376 55.0469C115.408 55 115.462 54.9688 115.54 54.9531C115.478 54.9062 115.454 54.8672 115.47 54.8359C115.486 54.8047 115.509 54.75 115.54 54.6719C115.431 54.7188 115.368 54.7422 115.353 54.7422C115.353 54.7422 115.329 54.75 115.283 54.7656C115.361 54.625 115.408 54.5625 115.423 54.5781C115.439 54.5938 115.462 54.6016 115.493 54.6016C115.509 54.5078 115.533 54.4531 115.564 54.4375C115.595 54.4062 115.634 54.3906 115.681 54.3906C115.65 54.6094 115.65 54.7344 115.681 54.7656C115.712 54.7969 115.751 54.8438 115.798 54.9062C115.689 55.0312 115.595 55.1094 115.517 55.1406C115.454 55.1719 115.384 55.1875 115.306 55.1875C115.165 55.2812 115.103 55.3359 115.118 55.3516C115.15 55.3672 115.181 55.3828 115.212 55.3984C115.259 55.3984 115.298 55.4062 115.329 55.4219C115.361 55.4375 115.376 55.4688 115.376 55.5156C115.47 55.5312 115.556 55.5234 115.634 55.4922C115.712 55.4453 115.783 55.3984 115.845 55.3516C115.908 55.3047 115.962 55.2656 116.009 55.2344C116.072 55.2031 116.134 55.2109 116.197 55.2578C116.243 55.1172 116.275 55.0469 116.29 55.0469C116.322 55.0312 116.345 55.0156 116.361 55C116.454 54.9531 116.525 54.9062 116.572 54.8594C116.634 54.7969 116.704 54.7969 116.783 54.8594C116.829 54.8125 116.861 54.7812 116.876 54.7656C116.908 54.75 116.947 54.7266 116.993 54.6953C116.962 54.6172 116.986 54.5547 117.064 54.5078C117.158 54.4609 117.251 54.4297 117.345 54.4141C117.423 54.3047 117.478 54.2422 117.509 54.2266C117.556 54.1953 117.626 54.1953 117.72 54.2266C117.767 54.1016 117.868 54.0234 118.025 53.9922C118.197 53.9453 118.329 53.8906 118.423 53.8281C118.408 53.75 118.462 53.7109 118.587 53.7109C118.712 53.6953 118.783 53.6094 118.798 53.4531L118.986 53.5234ZM115.142 52.6562C115.095 52.6562 115.025 52.6406 114.931 52.6094C114.853 52.5781 114.806 52.6172 114.79 52.7266C114.79 52.7109 114.845 52.7188 114.954 52.75C115.064 52.7656 115.126 52.7344 115.142 52.6562ZM120.298 58.0938C120.314 57.9688 120.29 57.9141 120.228 57.9297C120.165 57.9453 120.095 57.9609 120.017 57.9766C120.033 58.1172 120.126 58.1562 120.298 58.0938ZM112.892 49.6797C112.767 49.7422 112.665 49.7656 112.587 49.75C112.415 49.8438 112.314 49.9453 112.283 50.0547C112.111 50.1016 112.009 50.2109 111.978 50.3828C111.962 50.5547 111.923 50.7109 111.861 50.8516C112.048 50.7734 112.165 50.6406 112.212 50.4531C112.29 50.4531 112.345 50.4375 112.376 50.4062C112.423 50.375 112.462 50.3438 112.493 50.3125C112.525 50.2656 112.556 50.2266 112.587 50.1953C112.618 50.1484 112.665 50.1172 112.728 50.1016C112.759 49.9453 112.806 49.8438 112.868 49.7969C112.947 49.75 112.954 49.7109 112.892 49.6797ZM117.72 55.6094C117.564 55.5625 117.486 55.6172 117.486 55.7734C117.626 55.7578 117.704 55.7031 117.72 55.6094ZM113.361 50.4531C113.236 50.3594 113.181 50.2891 113.197 50.2422C113.212 50.1953 113.204 50.1328 113.173 50.0547C112.97 50.1328 112.814 50.2578 112.704 50.4297C112.611 50.6016 112.462 50.7266 112.259 50.8047C112.259 50.9609 112.22 51.0547 112.142 51.0859C112.064 51.1016 111.993 51.125 111.931 51.1562C111.868 51.1875 111.822 51.2266 111.79 51.2734C111.759 51.3203 111.767 51.3906 111.814 51.4844C111.939 51.4531 112.04 51.4141 112.118 51.3672C112.212 51.3203 112.322 51.2812 112.447 51.25C112.556 51.1719 112.618 51.1172 112.634 51.0859C112.65 51.0391 112.673 51 112.704 50.9688C112.829 50.8906 112.962 50.8359 113.103 50.8047C113.259 50.7578 113.345 50.6406 113.361 50.4531ZM116.478 52.7031C116.322 52.625 116.228 52.5938 116.197 52.6094C116.181 52.6094 116.15 52.6094 116.103 52.6094C116.025 52.5469 115.962 52.5 115.915 52.4688C115.868 52.4219 115.806 52.4141 115.728 52.4453C115.478 52.6953 115.259 52.8438 115.072 52.8906C115.025 52.9688 114.954 53.0469 114.861 53.125C114.783 53.1875 114.689 53.2109 114.579 53.1953C114.548 53.3359 114.47 53.4219 114.345 53.4531C114.22 53.4688 114.118 53.5234 114.04 53.6172C113.884 53.7891 113.704 53.9297 113.501 54.0391C113.548 54.0859 113.579 54.0938 113.595 54.0625C113.626 54.0312 113.665 54 113.712 53.9688C113.775 53.9375 113.829 53.9141 113.876 53.8984C113.923 53.8672 113.954 53.8516 113.97 53.8516C114.033 53.8203 114.087 53.8047 114.134 53.8047C114.197 53.7891 114.251 53.7656 114.298 53.7344C114.361 53.625 114.415 53.5469 114.462 53.5C114.509 53.4531 114.564 53.4141 114.626 53.3828C114.767 53.3359 114.853 53.3125 114.884 53.3125C115.056 53.2344 115.158 53.2031 115.189 53.2188C115.236 53.2344 115.275 53.25 115.306 53.2656C115.4 53.2344 115.462 53.1953 115.493 53.1484C115.525 53.1016 115.579 53.0938 115.658 53.125C115.673 53.2188 115.634 53.2656 115.54 53.2656C115.462 53.2656 115.4 53.2812 115.353 53.3125C115.275 53.3906 115.181 53.4688 115.072 53.5469C114.962 53.625 114.861 53.6406 114.767 53.5938C114.517 53.7812 114.298 53.9453 114.111 54.0859C113.923 54.2109 113.697 54.3125 113.431 54.3906C113.447 54.4688 113.423 54.5156 113.361 54.5312C113.298 54.5312 113.283 54.5703 113.314 54.6484C113.376 54.7109 113.431 54.7344 113.478 54.7188C113.54 54.7031 113.595 54.6875 113.642 54.6719C113.689 54.6406 113.736 54.6172 113.783 54.6016C113.829 54.5703 113.876 54.5703 113.923 54.6016C113.986 54.4922 114.079 54.4141 114.204 54.3672C114.329 54.3047 114.392 54.2266 114.392 54.1328C114.533 54.1172 114.65 54.0703 114.743 53.9922C114.853 53.9141 114.962 53.8984 115.072 53.9453C115.165 53.7734 115.267 53.625 115.376 53.5C115.501 53.3594 115.665 53.2656 115.868 53.2188C115.822 53.1094 115.79 53.0469 115.775 53.0312C115.759 53 115.759 52.9688 115.775 52.9375C115.868 52.9375 115.939 52.9219 115.986 52.8906C116.033 52.8438 116.111 52.8281 116.22 52.8438C116.236 52.7344 116.267 52.7031 116.314 52.75C116.376 52.7969 116.431 52.7812 116.478 52.7031ZM115.376 52.1406C115.314 52.125 115.243 52.1094 115.165 52.0938C115.087 52.0625 115.009 52.0312 114.931 52C114.775 52.125 114.595 52.2578 114.392 52.3984C114.189 52.5391 114.001 52.5859 113.829 52.5391C113.986 52.3828 114.126 52.2891 114.251 52.2578C114.376 52.2109 114.501 52.1641 114.626 52.1172C114.579 52.0547 114.587 52.0156 114.65 52C114.728 51.9688 114.736 51.9141 114.673 51.8359C114.501 51.8672 114.415 51.8594 114.415 51.8125C114.431 51.7031 114.423 51.6328 114.392 51.6016C114.361 51.5547 114.306 51.5156 114.228 51.4844C114.15 51.5312 114.103 51.5703 114.087 51.6016C114.072 51.6328 114.017 51.6484 113.923 51.6484C113.783 51.7734 113.712 51.8203 113.712 51.7891C113.712 51.7422 113.689 51.7266 113.642 51.7422C113.595 51.7578 113.587 51.7422 113.618 51.6953C113.665 51.6484 113.712 51.6172 113.759 51.6016C113.822 51.5703 113.884 51.5391 113.947 51.5078C114.009 51.4766 114.056 51.4219 114.087 51.3438C114.04 51.2969 113.993 51.2812 113.947 51.2969C113.915 51.3125 113.884 51.3359 113.853 51.3672C113.822 51.3984 113.783 51.4297 113.736 51.4609C113.704 51.4766 113.665 51.4688 113.618 51.4375C113.509 51.5 113.408 51.5859 113.314 51.6953C113.22 51.7891 113.118 51.7891 113.009 51.6953C113.181 51.6016 113.29 51.5391 113.337 51.5078C113.384 51.4609 113.431 51.4531 113.478 51.4844C113.572 51.3906 113.642 51.3594 113.689 51.3906C113.736 51.4219 113.775 51.4219 113.806 51.3906C113.79 51.2812 113.79 51.1953 113.806 51.1328C113.837 51.0703 113.822 51.0234 113.759 50.9922C113.743 51.0391 113.642 51.0625 113.454 51.0625C113.423 51.1406 113.384 51.2031 113.337 51.25C113.29 51.2969 113.236 51.3438 113.173 51.3906C113.204 51.2812 113.228 51.1875 113.243 51.1094C113.275 51.0312 113.337 51.0156 113.431 51.0625C113.415 50.9844 113.447 50.9453 113.525 50.9453C113.618 50.9453 113.65 50.8984 113.618 50.8047C113.447 50.7734 113.306 50.8125 113.197 50.9219C113.087 51.0312 112.954 51.0859 112.798 51.0859C112.751 51.1797 112.681 51.2656 112.587 51.3438C112.509 51.4062 112.408 51.4453 112.283 51.4609C112.267 51.5703 112.181 51.6172 112.025 51.6016C112.072 51.6797 112.118 51.75 112.165 51.8125C112.228 51.875 112.165 51.9062 111.978 51.9062C111.978 52 111.993 52.0625 112.025 52.0938C112.056 52.1094 112.048 52.1719 112.001 52.2812C112.048 52.3125 112.087 52.3359 112.118 52.3516C112.165 52.3672 112.204 52.3906 112.236 52.4219C112.111 52.5469 112.033 52.6875 112.001 52.8438C112.064 52.8906 112.118 52.9297 112.165 52.9609C112.212 52.9766 112.267 53 112.329 53.0312C112.423 52.9219 112.525 52.8359 112.634 52.7734C112.759 52.6953 112.908 52.6641 113.079 52.6797C113.126 52.5859 113.173 52.5234 113.22 52.4922C113.283 52.4453 113.353 52.4219 113.431 52.4219C113.415 52.3438 113.447 52.2891 113.525 52.2578C113.618 52.2266 113.681 52.1953 113.712 52.1641C113.743 52.0703 113.783 52.0312 113.829 52.0469C113.876 52.0625 113.931 52.0859 113.993 52.1172C114.134 52.0703 114.228 52.0312 114.275 52C114.337 51.9531 114.384 51.9453 114.415 51.9766C114.29 52.0078 114.181 52.0703 114.087 52.1641C113.993 52.2422 113.876 52.2656 113.736 52.2344C113.642 52.3125 113.556 52.3594 113.478 52.375C113.493 52.5156 113.47 52.5859 113.408 52.5859C113.345 52.5703 113.275 52.5625 113.197 52.5625C113.181 52.6562 113.134 52.7188 113.056 52.75C112.978 52.7656 112.915 52.7969 112.868 52.8438C112.853 52.875 112.806 52.9141 112.728 52.9609C112.665 53.0078 112.579 53.0234 112.47 53.0078C112.47 53.1016 112.431 53.1641 112.353 53.1953C112.29 53.2266 112.251 53.2812 112.236 53.3594C112.298 53.3438 112.322 53.375 112.306 53.4531C112.306 53.5156 112.322 53.5625 112.353 53.5938C112.556 53.4062 112.806 53.2734 113.103 53.1953C113.072 53.1172 113.087 53.0469 113.15 52.9844C113.212 52.9219 113.283 52.875 113.361 52.8438C113.298 53.0938 113.189 53.2578 113.033 53.3359C112.876 53.4141 112.743 53.4922 112.634 53.5703C112.712 53.6641 112.759 53.6953 112.775 53.6641C112.79 53.6328 112.837 53.625 112.915 53.6406C113.056 53.5312 113.134 53.4688 113.15 53.4531C113.181 53.4219 113.212 53.3906 113.243 53.3594C113.165 53.5 113.087 53.6328 113.009 53.7578C112.931 53.8672 112.829 53.9141 112.704 53.8984C112.673 53.9609 112.665 54.0078 112.681 54.0391C112.712 54.0703 112.736 54.1094 112.751 54.1562C113.095 53.9688 113.368 53.8047 113.572 53.6641C113.79 53.5234 114.001 53.3672 114.204 53.1953C114.283 53.1328 114.337 53.0938 114.368 53.0781C114.4 53.0469 114.431 53.0312 114.462 53.0312C114.509 53.0156 114.548 53 114.579 52.9844C114.626 52.9531 114.65 52.9141 114.65 52.8672C114.572 52.8828 114.501 52.8828 114.439 52.8672C114.376 52.8359 114.329 52.8359 114.298 52.8672C114.236 52.9297 114.173 52.9922 114.111 53.0547C114.048 53.1172 113.954 53.1406 113.829 53.125C114.017 52.9688 114.204 52.8359 114.392 52.7266C114.579 52.6016 114.814 52.5156 115.095 52.4688C115.173 52.5156 115.212 52.5078 115.212 52.4453C115.212 52.3672 115.251 52.3125 115.329 52.2812L115.376 52.1406ZM122.829 62.1016C122.767 62.0703 122.704 62.0859 122.642 62.1484C122.595 62.1953 122.556 62.25 122.525 62.3125C122.603 62.3281 122.642 62.3047 122.642 62.2422C122.658 62.1641 122.712 62.1406 122.806 62.1719L122.829 62.1016ZM114.908 54.2031C114.798 54.2031 114.728 54.2188 114.697 54.25C114.681 54.2812 114.665 54.3125 114.65 54.3438C114.54 54.375 114.478 54.4062 114.462 54.4375C114.462 54.4688 114.447 54.5234 114.415 54.6016C114.509 54.5391 114.603 54.5391 114.697 54.6016C114.665 54.4922 114.689 54.4219 114.767 54.3906C114.845 54.3438 114.892 54.2812 114.908 54.2031ZM112.915 58.375C112.9 58.1875 112.837 58.1328 112.728 58.2109C112.618 58.2734 112.556 58.3594 112.54 58.4688C112.728 58.4688 112.822 58.4453 112.822 58.3984C112.822 58.3516 112.853 58.3438 112.915 58.375ZM113.009 58.9609C112.978 58.8828 112.954 58.8281 112.939 58.7969C112.923 58.7656 112.915 58.7109 112.915 58.6328C112.775 58.7109 112.704 58.7344 112.704 58.7031C112.704 58.6719 112.689 58.6641 112.658 58.6797C112.611 58.7891 112.626 58.8594 112.704 58.8906C112.798 58.9062 112.822 58.9531 112.775 59.0312L113.009 58.9609ZM112.658 59.4531C112.564 59.4062 112.517 59.3594 112.517 59.3125C112.533 59.25 112.517 59.2266 112.47 59.2422C112.517 59.3828 112.579 59.4531 112.658 59.4531ZM114.181 61.7734C114.15 61.6953 114.118 61.625 114.087 61.5625C114.056 61.5 113.993 61.4609 113.9 61.4453C113.837 61.5859 113.79 61.7109 113.759 61.8203C113.931 61.8359 114.033 61.8359 114.064 61.8203C114.095 61.7891 114.134 61.7734 114.181 61.7734ZM113.759 61.2812C113.509 61.1406 113.329 61.1641 113.22 61.3516C113.126 61.2578 113.072 61.2031 113.056 61.1875C113.04 61.1719 113.025 61.1406 113.009 61.0938C113.056 61.0938 113.111 61.1094 113.173 61.1406C113.236 61.1562 113.283 61.1562 113.314 61.1406C113.439 61.0781 113.501 61.0156 113.501 60.9531C113.517 60.8906 113.572 60.875 113.665 60.9062C113.65 60.7812 113.626 60.6562 113.595 60.5312C113.579 60.3906 113.533 60.2656 113.454 60.1562C113.361 60.125 113.29 60.1016 113.243 60.0859C113.212 60.0703 113.173 60.0547 113.126 60.0391C113.079 60.0234 113.033 60.0078 112.986 59.9922C112.939 59.9766 112.908 59.9453 112.892 59.8984C113.017 59.8828 113.087 59.8906 113.103 59.9219C113.134 59.9531 113.173 59.9688 113.22 59.9688C113.267 59.8438 113.275 59.7422 113.243 59.6641C113.212 59.5859 113.212 59.5078 113.243 59.4297C113.165 59.3984 113.134 59.3281 113.15 59.2188C113.165 59.1094 113.126 59.0469 113.033 59.0312C112.986 59.0781 112.931 59.125 112.868 59.1719C112.822 59.2188 112.751 59.2344 112.658 59.2188C112.767 59.3906 112.767 59.4766 112.658 59.4766C112.595 59.7109 112.548 59.875 112.517 59.9688C112.501 60.0469 112.501 60.1406 112.517 60.25C112.611 60.2188 112.665 60.2344 112.681 60.2969C112.697 60.3438 112.728 60.3516 112.775 60.3203C112.884 60.2266 112.962 60.1797 113.009 60.1797C113.072 60.1797 113.118 60.1641 113.15 60.1328C113.15 60.2266 113.134 60.3125 113.103 60.3906C113.072 60.4688 113.025 60.5469 112.962 60.625C112.853 60.7188 112.783 60.7812 112.751 60.8125C112.736 60.9688 112.712 61.0781 112.681 61.1406C112.665 61.1875 112.611 61.2109 112.517 61.2109C112.673 61.3047 112.767 61.3203 112.798 61.2578C112.829 61.1953 112.876 61.1797 112.939 61.2109C112.908 61.3516 112.892 61.4766 112.892 61.5859C112.767 61.7266 112.681 61.7891 112.634 61.7734C112.587 61.9297 112.572 62.0781 112.587 62.2188C112.618 62.3438 112.634 62.4922 112.634 62.6641C112.759 62.6797 112.837 62.6328 112.868 62.5234C112.9 62.4141 112.954 62.3438 113.033 62.3125C113.033 62.2344 113.048 62.1719 113.079 62.125C113.111 62.0781 113.142 62.0391 113.173 62.0078C113.22 61.9766 113.259 61.9453 113.29 61.9141C113.322 61.8828 113.337 61.8281 113.337 61.75C113.431 61.7031 113.493 61.625 113.525 61.5156C113.572 61.4062 113.65 61.3281 113.759 61.2812ZM122.033 55.2812C121.908 55.3438 121.829 55.3672 121.798 55.3516C121.783 55.3359 121.751 55.3359 121.704 55.3516C121.767 55.2734 121.876 55.25 122.033 55.2812ZM123.626 56.7578C123.564 56.7734 123.509 56.7969 123.462 56.8281C123.431 56.8438 123.376 56.8438 123.298 56.8281C123.204 56.9375 123.15 57.0156 123.134 57.0625C123.134 57.0938 123.111 57.1094 123.064 57.1094C122.923 57.1406 122.822 57.125 122.759 57.0625C122.697 57 122.595 56.9766 122.454 56.9922C122.548 56.8516 122.658 56.8125 122.783 56.875C122.861 56.8438 122.931 56.8125 122.993 56.7812C123.072 56.7344 123.142 56.6797 123.204 56.6172C123.376 56.6172 123.486 56.625 123.533 56.6406C123.595 56.6562 123.626 56.6953 123.626 56.7578ZM123.743 57.8125C123.681 57.8906 123.603 57.9141 123.509 57.8828C123.415 57.8359 123.353 57.7812 123.322 57.7188C123.478 57.6719 123.572 57.6719 123.603 57.7188C123.634 57.75 123.681 57.7812 123.743 57.8125ZM123.345 57.3203C123.298 57.4922 123.251 57.5625 123.204 57.5312C123.158 57.5 123.103 57.5 123.04 57.5312C123.181 57.4062 123.259 57.3359 123.275 57.3203C123.29 57.2891 123.314 57.2891 123.345 57.3203ZM121.845 55.1875C121.767 55.1406 121.673 55.1328 121.564 55.1641C121.47 55.1797 121.431 55.25 121.447 55.375C121.603 55.4844 121.681 55.5703 121.681 55.6328C121.603 55.6484 121.548 55.6484 121.517 55.6328C121.486 55.6172 121.439 55.6094 121.376 55.6094C121.376 55.6406 121.353 55.6797 121.306 55.7266C121.275 55.7734 121.228 55.7891 121.165 55.7734C121.009 55.8672 120.915 55.9609 120.884 56.0547C120.806 56.0547 120.751 56.0391 120.72 56.0078C120.689 55.9609 120.634 55.9219 120.556 55.8906C120.587 55.8438 120.634 55.8203 120.697 55.8203C120.775 55.8047 120.837 55.7812 120.884 55.75C120.853 55.6719 120.829 55.6172 120.814 55.5859C120.814 55.5391 120.822 55.4922 120.837 55.4453C120.947 55.5703 121.025 55.6406 121.072 55.6562C121.118 55.6719 121.189 55.6875 121.283 55.7031C121.189 55.5938 121.134 55.5469 121.118 55.5625C121.103 55.5625 121.079 55.5469 121.048 55.5156C121.033 55.3906 121.04 55.3047 121.072 55.2578C121.118 55.1953 121.204 55.1875 121.329 55.2344C121.376 55.2031 121.408 55.1641 121.423 55.1172C121.454 55.0703 121.493 55.0391 121.54 55.0234C121.618 55.0391 121.665 55.0547 121.681 55.0703C121.697 55.0859 121.743 55.0781 121.822 55.0469L121.845 55.1875ZM123.626 58.1875C123.548 58.1875 123.501 58.1641 123.486 58.1172C123.47 58.0703 123.423 58.0391 123.345 58.0234C123.517 57.9922 123.603 58 123.603 58.0469C123.618 58.0938 123.626 58.1406 123.626 58.1875ZM122.22 56.8047C122.079 56.8359 121.923 56.8047 121.751 56.7109C121.783 56.6328 121.829 56.6094 121.892 56.6406C121.954 56.6719 122.001 56.6719 122.033 56.6406L122.22 56.8047ZM123.931 58.4219C123.962 58.5 123.954 58.5547 123.908 58.5859C123.861 58.6172 123.829 58.6641 123.814 58.7266C123.783 58.6953 123.767 58.6484 123.767 58.5859C123.783 58.5234 123.751 58.4766 123.673 58.4453C123.689 58.3828 123.72 58.3594 123.767 58.375C123.829 58.375 123.884 58.3906 123.931 58.4219ZM123.72 58.7734C123.611 58.8672 123.54 58.8828 123.509 58.8203C123.493 58.7578 123.47 58.7422 123.439 58.7734C123.408 58.6641 123.423 58.6406 123.486 58.7031C123.564 58.75 123.642 58.7734 123.72 58.7734ZM121.939 56.875C121.908 56.9531 121.845 56.9844 121.751 56.9688C121.673 56.9375 121.618 56.9688 121.587 57.0625C121.65 56.9688 121.767 56.9062 121.939 56.875ZM123.486 58.8203C123.501 58.8516 123.493 58.8984 123.462 58.9609C123.431 59.0234 123.376 59.0469 123.298 59.0312C123.22 59.1719 123.173 59.2344 123.158 59.2188C123.142 59.2031 123.118 59.1953 123.087 59.1953C123.118 59.1797 123.158 59.1172 123.204 59.0078C123.267 58.8828 123.361 58.8203 123.486 58.8203ZM117.931 53.7109C117.9 53.7422 117.868 53.7812 117.837 53.8281C117.822 53.8594 117.783 53.875 117.72 53.875C117.736 53.8125 117.759 53.7812 117.79 53.7812C117.837 53.7656 117.884 53.7422 117.931 53.7109ZM117.579 53.875C117.517 53.9062 117.454 53.9219 117.392 53.9219C117.345 53.9219 117.283 53.9375 117.204 53.9688C117.251 53.9062 117.306 53.8672 117.368 53.8516C117.447 53.8203 117.517 53.8281 117.579 53.875ZM117.251 54.1328C117.173 54.1016 117.118 54.1172 117.087 54.1797C117.072 54.2422 117.033 54.2812 116.97 54.2969C116.986 54.1875 117.025 54.1172 117.087 54.0859C117.165 54.0391 117.22 54.0547 117.251 54.1328ZM123.322 60.7188C123.29 60.7656 123.251 60.7969 123.204 60.8125C123.158 60.8281 123.111 60.8438 123.064 60.8594C123.095 60.8281 123.126 60.7969 123.158 60.7656C123.189 60.7188 123.243 60.7031 123.322 60.7188ZM113.548 51.9766C113.392 52.0078 113.298 52.0234 113.267 52.0234C113.454 51.9141 113.548 51.8984 113.548 51.9766ZM112.798 51.5781C112.798 51.6406 112.751 51.6797 112.658 51.6953C112.579 51.6953 112.517 51.6875 112.47 51.6719C112.501 51.5938 112.556 51.5625 112.634 51.5781C112.712 51.5781 112.767 51.5781 112.798 51.5781ZM113.829 52.7734C113.736 52.7734 113.673 52.8047 113.642 52.8672C113.611 52.9141 113.54 52.9375 113.431 52.9375C113.509 52.8594 113.556 52.8047 113.572 52.7734C113.603 52.7422 113.626 52.7109 113.642 52.6797L113.829 52.7734ZM113.173 52.1172C113.142 52.1953 113.072 52.2656 112.962 52.3281C112.853 52.375 112.751 52.3906 112.658 52.375C112.751 52.3438 112.845 52.2969 112.939 52.2344C113.033 52.1719 113.111 52.1328 113.173 52.1172ZM113.759 53.2656C113.712 53.2656 113.673 53.2891 113.642 53.3359C113.626 53.3672 113.579 53.3672 113.501 53.3359C113.517 53.1953 113.603 53.125 113.759 53.125V53.2656ZM112.751 52.5391C112.736 52.6016 112.697 52.6406 112.634 52.6562C112.572 52.6562 112.517 52.6719 112.47 52.7031C112.517 52.6719 112.556 52.6406 112.587 52.6094C112.618 52.5781 112.673 52.5547 112.751 52.5391ZM133.932 64H131.772V48.76H126.42V46.864H139.26V48.76H133.932V64ZM149.98 59.128C149.468 60.264 148.948 61.216 148.42 61.984C147.908 62.736 147.3 63.304 146.596 63.688C145.892 64.056 144.996 64.24 143.908 64.24C143.46 64.24 143.036 64.208 142.636 64.144C142.252 64.08 141.9 63.992 141.58 63.88V61.744C141.9 61.888 142.244 62.008 142.612 62.104C142.98 62.184 143.364 62.224 143.764 62.224C144.356 62.224 144.86 62.144 145.276 61.984C145.708 61.808 146.084 61.528 146.404 61.144C146.74 60.76 147.052 60.248 147.34 59.608L140.74 46.864H143.116L147.892 56.296C147.956 56.408 148.02 56.544 148.084 56.704C148.148 56.848 148.212 57 148.276 57.16C148.356 57.32 148.42 57.472 148.468 57.616H148.564C148.612 57.504 148.66 57.376 148.708 57.232C148.772 57.072 148.828 56.92 148.876 56.776C148.94 56.616 148.996 56.48 149.044 56.368L153.172 46.864H155.452L149.98 59.128ZM169.089 46.864V62.08H171.273V68.512H169.209V64H157.425V68.512H155.361V62.08H156.681C157.257 61.088 157.801 59.976 158.313 58.744C158.841 57.512 159.305 56.224 159.705 54.88C160.105 53.52 160.433 52.16 160.689 50.8C160.945 49.44 161.105 48.128 161.169 46.864H169.089ZM163.065 48.808C163.001 49.736 162.841 50.784 162.585 51.952C162.345 53.12 162.033 54.32 161.649 55.552C161.281 56.768 160.865 57.944 160.401 59.08C159.953 60.216 159.473 61.216 158.961 62.08H166.953V48.808H163.065ZM175.123 46.864H177.139V56.272C177.139 56.672 177.131 57.112 177.115 57.592C177.115 58.056 177.107 58.52 177.091 58.984C177.075 59.448 177.051 59.864 177.019 60.232C177.003 60.584 176.987 60.856 176.971 61.048H177.067L186.499 46.864H188.899V64H186.883V54.688C186.883 54.256 186.891 53.792 186.907 53.296C186.923 52.784 186.939 52.296 186.955 51.832C186.987 51.352 187.011 50.928 187.027 50.56C187.043 50.192 187.059 49.92 187.075 49.744H186.979L177.523 64H175.123V46.864ZM199.641 56.896L195.201 64H192.681L197.481 56.512C196.873 56.304 196.297 56.016 195.753 55.648C195.225 55.28 194.793 54.776 194.457 54.136C194.121 53.496 193.953 52.672 193.953 51.664C193.953 50.112 194.489 48.928 195.561 48.112C196.633 47.28 198.233 46.864 200.361 46.864H205.161V64H203.001V56.896H199.641ZM200.409 48.712C199.497 48.712 198.729 48.816 198.105 49.024C197.481 49.232 197.001 49.56 196.665 50.008C196.345 50.456 196.185 51.04 196.185 51.76C196.185 52.816 196.537 53.632 197.241 54.208C197.945 54.784 199.033 55.072 200.505 55.072H203.001V48.712H200.409Z" fill="#FDF8F0"/>
</svg>
